<?xml version="1.0" encoding="UTF-8"?>
<svg width="70" height="70" version="1.1" viewBox="0 0 18.521 18.521" xmlns="http://www.w3.org/2000/svg" xmlns:cc="http://creativecommons.org/ns#" xmlns:dc="http://purl.org/dc/elements/1.1/" xmlns:rdf="http://www.w3.org/1999/02/22-rdf-syntax-ns#">
 <metadata>
  <rdf:RDF>
   <cc:Work rdf:about="">
    <dc:format>image/svg+xml</dc:format>
    <dc:type rdf:resource="http://purl.org/dc/dcmitype/StillImage"/>
    <dc:title/>
   </cc:Work>
  </rdf:RDF>
 </metadata>
 <g transform="translate(0 1.0395)">
  <text x="9.2409449" y="15.633972" fill="#007dad" font-family="sans-serif" font-size="3.175px" letter-spacing=".26458px" stroke-width=".26458" style="line-height:1" xml:space="preserve"><tspan x="9.3732367" y="15.633972" fill="#007dad" font-family="'Source Sans Pro'" font-size="3.175px" stroke-width=".26458" text-align="center" text-anchor="middle">Dataset</tspan></text>
  <g transform="translate(23.086 -8.4408)">
   <path d="m-14.997 9.0737c-1.7103 0.015539-3.0796 0.67556-3.0798 1.4845-8.5e-5 0.82014 1.406 1.485 3.1404 1.485 1.7344 6.1e-5 3.1405-0.6648 3.1404-1.485-5e-4 -0.81996-1.4064-1.4845-3.1404-1.4845-0.02023-9.17e-5 -0.04034-9.17e-5 -0.06057 0zm-3.0793 2.6065v4.0489c2.5e-4 0.90266 1.6362 1.4845 2.8996 1.4845v-2.6153c0-0.56027 0.46328-1.0268 1.0248-1.0268h2.3559l-5.03e-4 -1.8914c-0.19762 0.21232-0.46061 0.39452-0.7625 0.53732-0.64836 0.30668-1.5098 0.47133-2.3774 0.47138-0.86751-4.1e-5 -1.7295-0.1647-2.3779-0.47138-0.30176-0.14274-0.56441-0.32512-0.76201-0.53732z" fill="#007dad" stroke-linecap="round" stroke-linejoin="round" stroke-width=".26458"/>
   <path d="m-13.68 14.3c-0.42577 0-0.76843 0.34318-0.76843 0.76894v3.3063c0 0.42576 0.34266 0.76843 0.76843 0.76843h3.3424c0.42577 0 0.76843-0.34267 0.76843-0.76843v-3.3063c0-0.42577-0.34266-0.76894-0.76843-0.76894zm-5.29e-4 0.72864h1.3074v0.64337h-1.3462v-0.60255c0-0.03615 0.0048-0.04082 0.03876-0.04082zm2.036 0h1.3059c0.03392 0 0.04082 0.0069 0.04082 0.04082v0.60255h-1.3467zm-2.0748 1.3715h1.3462v0.64337h-1.3462zm2.0748 0h1.3467v0.64337h-1.3467zm-2.0748 1.3715h1.3462v0.64337h-1.3074c-0.03386 0-0.03876-0.0047-0.03876-0.04082zm2.0748 0h1.3467v0.60255c0 0.03392-0.0069 0.04082-0.04082 0.04082h-1.3059z" color="#000000" color-rendering="auto" dominant-baseline="auto" fill="#8ac9e1" image-rendering="auto" shape-rendering="auto" solid-color="#000000" stop-color="#000000" style="font-feature-settings:normal;font-variant-alternates:normal;font-variant-caps:normal;font-variant-east-asian:normal;font-variant-ligatures:normal;font-variant-numeric:normal;font-variant-position:normal;font-variation-settings:normal;inline-size:0;isolation:auto;mix-blend-mode:normal;shape-margin:0;shape-padding:0;text-decoration-color:#000000;text-decoration-line:none;text-decoration-style:solid;text-indent:0;text-orientation:mixed;text-transform:none;white-space:normal"/>
  </g>
 </g>
</svg>
