<?xml version="1.0" encoding="UTF-8"?>
<svg width="70" height="70" version="1.1" viewBox="0 0 18.521 18.521" xmlns="http://www.w3.org/2000/svg" xmlns:cc="http://creativecommons.org/ns#" xmlns:dc="http://purl.org/dc/elements/1.1/" xmlns:rdf="http://www.w3.org/1999/02/22-rdf-syntax-ns#">
 <metadata>
  <rdf:RDF>
   <cc:Work rdf:about="">
    <dc:format>image/svg+xml</dc:format>
    <dc:type rdf:resource="http://purl.org/dc/dcmitype/StillImage"/>
    <dc:title/>
   </cc:Work>
  </rdf:RDF>
 </metadata>
 <g transform="translate(0 1.0395)">
  <text x="9.2409449" y="15.633972" fill="#007dad" font-family="sans-serif" font-size="3.175px" letter-spacing=".26458px" stroke-width=".26458" style="line-height:1" xml:space="preserve"><tspan x="9.3732367" y="15.633972" fill="#007dad" font-family="'Source Sans Pro'" font-size="3.175px" stroke-width=".26458" text-align="center" text-anchor="middle">LINEUP</tspan></text>
  <g transform="translate(-141.13 -1.659)">
   <path d="m145.16 3.2079c-0.42344 0-0.76427 0.34135-0.76427 0.76481v5.3997c0 0.42346 0.34083 0.76429 0.76427 0.76429h2.8216v-3.6494h5.7159v-2.5146c0-0.42346-0.34086-0.76481-0.7643-0.76481zm-0.0362 1.4552h2.1296v1.0961h-2.1296zm2.8577 0h2.1301v1.0961h-2.1301zm2.8582 0h2.1296v1.0961h-2.1296zm-5.7159 1.8242h2.1296v1.0966h-2.1296zm0 1.8247h2.1296v1.0966h-2.1296z" fill="#007dad" stroke-linecap="round" stroke-linejoin="round" stroke-width=".26458"/>
   <path transform="matrix(.26458 0 0 .26458 -131.87 27.527)" d="m1063.2-76.77c-1.6775 0-3.0273 1.3537-3.0273 3.0312v9.9316c0 1.6775 1.3498 3.0273 3.0273 3.0273h10.531v-15.99zm3.7851 2.3145c0.2726 0.0099 0.5206 0.13461 0.6563 0.33008l2.1504 3.0781c0.3061 0.43906-0.078 0.98638-0.6914 0.98633h-4.2969c-0.6128 8e-5 -0.9975-0.54725-0.6914-0.98633l2.1504-3.0781c0.1364-0.1947 0.3845-0.31864 0.6562-0.32812 0.023-0.0015 0.044-0.0021 0.066-2e-3zm-2.1816 6.9707h4.2969c0.6132-5.6e-5 0.9975 0.54922 0.6914 0.98828l-2.1504 3.0762c-0.3069 0.43787-1.072 0.43787-1.3789 0l-2.1504-3.0762c-0.3061-0.43908 0.078-0.98836 0.6914-0.98828z" color="#000000" color-rendering="auto" dominant-baseline="auto" fill="#8ac9e1" image-rendering="auto" shape-rendering="auto" solid-color="#000000" stop-color="#000000" style="font-feature-settings:normal;font-variant-alternates:normal;font-variant-caps:normal;font-variant-east-asian:normal;font-variant-ligatures:normal;font-variant-numeric:normal;font-variant-position:normal;font-variation-settings:normal;inline-size:0;isolation:auto;mix-blend-mode:normal;shape-margin:0;shape-padding:0;text-decoration-color:#000000;text-decoration-line:none;text-decoration-style:solid;text-indent:0;text-orientation:mixed;text-transform:none;white-space:normal"/>
   <path transform="matrix(.26458 0 0 .26458 -131.87 27.527)" d="m1076.5-76.77v15.99h10.531c1.6776 0 3.0274-1.3499 3.0274-3.0273v-9.9316c0-1.6775-1.3498-3.0312-3.0274-3.0312zm3.3633 3.2871c0.011 0 0.022-1.77e-4 0.033 0h6.7598c0.7394-2.81e-4 1.2014 0.66174 0.832 1.1914l-2.9844 3.1465v2.5801c5e-4 0.31047-0.1107 0.61157-0.3125 0.84766l-1.2598 1.4746c-0.3031 0.35369-0.8817 0.13966-0.8828-0.32617v-4.5762l-2.9863-3.1465c-0.3621-0.5182 0.073-1.1691 0.7969-1.1914z" color="#000000" color-rendering="auto" dominant-baseline="auto" fill="#8ac9e1" image-rendering="auto" shape-rendering="auto" solid-color="#000000" stop-color="#000000" style="font-feature-settings:normal;font-variant-alternates:normal;font-variant-caps:normal;font-variant-east-asian:normal;font-variant-ligatures:normal;font-variant-numeric:normal;font-variant-position:normal;font-variation-settings:normal;inline-size:0;isolation:auto;mix-blend-mode:normal;shape-margin:0;shape-padding:0;text-decoration-color:#000000;text-decoration-line:none;text-decoration-style:solid;text-indent:0;text-orientation:mixed;text-transform:none;white-space:normal"/>
  </g>
 </g>
</svg>
