<?xml version="1.0" encoding="UTF-8" standalone="no"?>
<svg
   width="70"
   height="70"
   version="1.1"
   viewBox="0 0 18.521 18.521"
   id="svg14"
   sodipodi:docname="pse-icon-selection.svg"
   inkscape:version="1.2 (dc2aedaf03, 2022-05-15)"
   xmlns:inkscape="http://www.inkscape.org/namespaces/inkscape"
   xmlns:sodipodi="http://sodipodi.sourceforge.net/DTD/sodipodi-0.dtd"
   xmlns="http://www.w3.org/2000/svg"
   xmlns:svg="http://www.w3.org/2000/svg"
   xmlns:rdf="http://www.w3.org/1999/02/22-rdf-syntax-ns#"
   xmlns:cc="http://creativecommons.org/ns#"
   xmlns:dc="http://purl.org/dc/elements/1.1/">
  <g
     id="g1071"
     transform="translate(0.61957944,0.55319593)"
     style="fill:#007dad;fill-opacity:1">
    <path
       style="fill:none;fill-opacity:1;stroke:#007dad;stroke-width:0.610135;stroke-linecap:round;stroke-linejoin:round;stroke-dasharray:none;stroke-dashoffset:0;stroke-opacity:1"
       d="m 13.542236,5.2664252 1.106392,1.6595877"
       id="path6496" />
    <path
       sodipodi:type="star"
       style="fill:#007dad;fill-opacity:1;stroke:#ffffff;stroke-width:0.09452817;stroke-dasharray:none;stroke-dashoffset:0;stroke-opacity:1;stroke-linecap:butt;stroke-linejoin:round"
       id="path8601"
       inkscape:flatsided="true"
       sodipodi:sides="3"
       sodipodi:cx="14.604372"
       sodipodi:cy="3.8281157"
       sodipodi:r1="1.0851669"
       sodipodi:r2="0.54258341"
       sodipodi:arg1="-0.040793683"
       sodipodi:arg2="1.0064039"
       inkscape:rounded="0"
       inkscape:randomized="0"
       d="M 15.435162,3.9443308 14.354041,4.628773 A 0.17320508,0.17320508 27.662694 0 1 14.088332,4.4894934 l -0.05218,-1.2784997 a 0.17320508,0.17320508 147.66269 0 1 0.253474,-0.1604708 l 1.133305,0.5940575 a 0.17320508,0.17320508 87.662694 0 1 0.01224,0.2997504 z"
       inkscape:transform-center-x="-0.41597141"
       inkscape:transform-center-y="0.038553291"
       transform="matrix(1.6513181,0,0,1.7423074,-10.771488,-1.6299694)"
       inkscape:path-effect="#path-effect4811" />
  </g>
  <defs
     id="defs18">
    <inkscape:path-effect
       effect="fillet_chamfer"
       id="path-effect6498"
       is_visible="true"
       lpeversion="1"
       nodesatellites_param="F,0,0,1,0,0,0,1 @ F,0,0,1,0,0.3,0,1"
       unit="px"
       method="auto"
       mode="F"
       radius="0.3"
       chamfer_steps="1"
       flexible="false"
       use_knot_distance="true"
       apply_no_radius="true"
       apply_with_radius="true"
       only_selected="false"
       hide_knots="false" />
    <inkscape:path-effect
       effect="fillet_chamfer"
       id="path-effect4811"
       is_visible="true"
       lpeversion="1"
       nodesatellites_param="F,0,0,1,0,0.3,0,1 @ F,0,0,1,0,0.3,0,1 @ F,0,0,1,0,0.3,0,1"
       unit="px"
       method="auto"
       mode="F"
       radius="0.3"
       chamfer_steps="1"
       flexible="false"
       use_knot_distance="true"
       apply_no_radius="true"
       apply_with_radius="true"
       only_selected="false"
       hide_knots="false" />
  </defs>
  <sodipodi:namedview
     id="namedview16"
     pagecolor="#ffffff"
     bordercolor="#000000"
     borderopacity="0.25"
     inkscape:showpageshadow="2"
     inkscape:pageopacity="0.0"
     inkscape:pagecheckerboard="0"
     inkscape:deskcolor="#d1d1d1"
     showgrid="false"
     inkscape:zoom="11.957143"
     inkscape:cx="27.34767"
     inkscape:cy="35.125448"
     inkscape:window-width="1920"
     inkscape:window-height="1017"
     inkscape:window-x="-8"
     inkscape:window-y="-8"
     inkscape:window-maximized="1"
     inkscape:current-layer="svg14" />
  <metadata
     id="metadata2">
    <rdf:RDF>
      <cc:Work
         rdf:about="">
        <dc:format>image/svg+xml</dc:format>
        <dc:type
           rdf:resource="http://purl.org/dc/dcmitype/StillImage" />
        <dc:title />
      </cc:Work>
    </rdf:RDF>
  </metadata>
  <text
     x="9.1873112"
     y="16.673517"
     fill="#007dad"
     font-family="sans-serif"
     font-size="3.175px"
     letter-spacing="0.26458px"
     stroke-width="0.26458"
     style="line-height:1"
     xml:space="preserve"
     id="text10"><tspan
       x="9.319603"
       y="16.673517"
       fill="#007dad"
       font-family="'Source Sans Pro'"
       font-size="3.175px"
       stroke-width="0.26458"
       text-align="center"
       text-anchor="middle"
       id="tspan8">Selection</tspan></text>
  <path
     d="m 7.3556987,4.116948 c -0.20864,0.003 -0.41519,0.0529 -0.60151,0.14676 -0.6726395,0.33966 -0.9451995,1.1714 -0.6051295,1.8438 0.18219,0.36057 0.50694,0.60131 0.8717795,0.69918 -0.0917,0.0242 -0.18133,0.0566 -0.26665,0.0997 -0.6721795,0.33965 -0.9446695,1.1711 -0.6051295,1.8433 0.33965,0.67217 1.1715995,0.94724 1.8437995,0.60771 0.35969,-0.18175 0.5998,-0.50595 0.69814,-0.86971 0.0239,0.089 0.0572,0.17678 0.10026,0.262 0.33965,0.67217 1.1695002,0.94724 1.8417003,0.60771 0.67264,-0.33966 0.9478,-1.1735 0.60772,-1.8459 -0.17662,-0.34921 -0.49191,-0.60014 -0.85835,-0.70177 0.0852,-0.0236 0.16891,-0.0559 0.25063,-0.0971 0.67264,-0.33966 0.94779,-1.1714 0.60772,-1.8438 -0.23607,-0.46676 -0.71929,-0.75869 -1.2423001,-0.7519 -0.20892,0.003 -0.4149502,0.0527 -0.6015202,0.14676 -0.35961,0.1816 -0.60015,0.50483 -0.69866,0.86817 -0.0239,-0.0893 -0.057,-0.17751 -0.10025,-0.26303 -0.2362,-0.46702 -0.719,-0.759 -1.2423,-0.7519 z m 1.3353,1.7281 c 0.0239,0.0892 0.0571,0.17714 0.10026,0.26252 0.18238,0.36094 0.50752,0.60152 0.87229,0.69918 -0.0918,0.0242 -0.18143,0.0568 -0.26665,0.0997 -0.35994,0.18175 -0.60032,0.50546 -0.69866,0.86919 -0.0238,-0.089 -0.0572,-0.1768 -0.10025,-0.26199 -0.17637,-0.3493 -0.49175,-0.6011 -0.85835,-0.70332 0.086,-0.0236 0.17084,-0.0561 0.25322,-0.0977 0.35944,-0.18151 0.59954,-0.50452 0.69814,-0.86765 z"
     color="#000000"
     color-rendering="auto"
     dominant-baseline="auto"
     fill="#007dad"
     image-rendering="auto"
     solid-color="#000000"
     stop-color="#000000"
     style="font-variant-ligatures:normal;font-variant-position:normal;font-variant-caps:normal;font-variant-numeric:normal;font-variant-alternates:normal;font-variant-east-asian:normal;font-feature-settings:normal;font-variation-settings:normal;text-indent:0;text-decoration-line:none;text-decoration-style:solid;text-decoration-color:#000000;text-transform:none;text-orientation:mixed;white-space:normal;shape-padding:0;shape-margin:0;inline-size:0;display:inline;isolation:auto;mix-blend-mode:normal;fill:#8ac9e1;fill-opacity:1;stroke:none;stroke-opacity:1;shape-rendering:auto"
     id="path309" />
  <path
     style="fill:none;stroke:#007dad;stroke-width:0.68236656;stroke-dasharray:2.04708911,2.04708911;stroke-dashoffset:0;stroke-opacity:1"
     id="path963"
     sodipodi:type="arc"
     sodipodi:cx="8.6298561"
     sodipodi:cy="6.7268624"
     sodipodi:rx="5.4655757"
     sodipodi:ry="4.5362067"
     sodipodi:start="1.2739337"
     sodipodi:end="5.634202"
     sodipodi:arc-type="arc"
     d="M 10.228655,11.064651 A 5.4655757,4.5362067 0 0 1 3.6265369,8.5526441 5.4655757,4.5362067 0 0 1 5.8592378,2.8166877 5.4655757,4.5362067 0 0 1 12.984273,3.9852847"
     sodipodi:open="true" />
</svg>
