<svg xmlns="http://www.w3.org/2000/svg" xmlns:xlink="http://www.w3.org/1999/xlink" width="24" height="25" viewBox="0 0 480 500" >
	<defs>
		<linearGradient id="a">
			<stop stop-color="#fff" stop-opacity=".804" offset="0"/>
			<stop stop-color="#fff" stop-opacity="0" offset="1"/>
		</linearGradient>
		<radialGradient id="d" cx="353.38" cy="147.48" r="44.017" gradientTransform="matrix(1 0 0 .0763 -31.41 -105.17)" gradientUnits="userSpaceOnUse" xlink:href="#a"/>
		<radialGradient id="b" cx="228.4" cy="273.52" r="12.374" gradientTransform="translate(102.6 124.31) scale(.4457)" gradientUnits="userSpaceOnUse" xlink:href="#a"/>
	</defs>
	<path d="M135.08 89.938L190.757 55.7c4.607-2.832 6.906-3.14 10.062-2.624-.1-3.047 2.12-6.693 5.93-9.063l52.72-32.758c3.48-2.162 6.94-2.03 9.28 0l57.41 49.85c2.91 3.175 2.06 5.71.64 8.27 3.52-.916 7.42-.915 10.87 2.077l56.94 49.405c3.27 2.838 3.73 8.507 2.83 11.756 2.42-1.525 7.94-1.13 11.05 1.68l59.75 54.004c2.3 2.078 3.22 5.926.79 10.96l-26.394 53.88c-.69 1.224-1.304 1.488-2.97 2.475 1.907-.112 1.36 2.47.66 4.072l-20.59 41.776c-1.1 2.08-3.36 3.9-5.624 5.06 1.7.195 1.99 1.88 1.204 3.4l-16.2 34.565c-.8 1.67-1.893 3.407-4.24 5.473l-46.11 34.112c-.75.295-1.47 1.615-2.85.118.22 2.262-1 3.472-2.91 5.276l-28.49 22.706-208.66-103.22 22.45-207.89c.784-7.24 3.84-9.32 6.767-11.12z"/>
	<g>
		<use transform="translate(-8.485 -93.338)" xlink:href="#c"/>
		<use transform="translate(60.81 -143.54)" xlink:href="#c"/>
		<use transform="translate(131.52 -78.49)" xlink:href="#c"/>
		<use transform="translate(205.06 -12.728)" xlink:href="#c"/>
		<use transform="translate(135.06 40.305)" xlink:href="#c"/>
		<path id="e" fill="url(#d)" d="M277.95-100.1h88.035v12.374H277.95z" transform="rotate(41.302)" opacity=".7"/>
		<use transform="rotate(2.44 -2534.14 413.875)" opacity=".5" xlink:href="#e"/>
		<use transform="translate(76.5 67)" opacity=".5" xlink:href="#e"/>
		<use transform="translate(-69.5 -65)" opacity=".3" xlink:href="#e"/>
		<use transform="translate(-138 -15)" opacity=".4" xlink:href="#e"/>
		<use transform="matrix(.422 .6908 -.857 .093 325.97 91.613)" opacity=".9" xlink:href="#e"/>
	</g>
	<g opacity=".7">
		<path fill="#2ac44b" d="M464.58 204.05l-22.09 44.91c-.764 1.606-3.203 4.418-4.272 5.227l-37.61 27.616c-2.11 1.597-3-.33-1.557-3.477l14.42-34.265c1.31-2.85 2.78-5.59 5-7.41l43.35-33.52c2.35-1.91 3.81-1.27 2.77.92z"/>
		<path fill="#ffffff" d="M402.01 253l-19.352 41.433c-.723 1.547-2.372 2.86-3.753 3.946l-45.592 35.89c-2.767 2.18-3.17-.53-1.835-3.68l14.07-33.21c1.178-2.78 2.63-5.1 4.8-6.8l47.6-37.21c2.285-1.79 5.046-2.5 4.06-.39z"/>
		<path fill="#ffffff" d="M438.35 259.97l-18.975 38.835c-.698 1.464-1.41 2.657-2.735 3.672l-41.422 31.144c-3.153 2.42-3.54.94-1.98-2.3l16.215-33.68c1.244-2.58 2.477-4.87 4.56-6.45l41.182-31.3c2.193-1.662 4.107-1.893 3.154.1z"/>
		<path fill="#ffff25" d="M377.31 307.51l-17.835 38.047c-.695 1.482-2.43 2.78-5.756 5.46l-45.48 36.643 14.45-37.358c1.04-2.7 3-5.118 5.08-6.756l45.16-35.67c2.18-1.72 5.32-2.394 4.37-.37z"/>
		<path fill="#ffff25" d="M354.09 360.09l-10.657 25.038c-.34 1.082-1.18 2.496-2.184 3.164l-33.58 26.192-16.11-8.94 58.84-46.818c3.35-2.666 4.28-.024 3.67 1.364z"/>
		<path fill="#ff6031" d="M412.27 311.85l-15.952 33.227c-.656 1.377-4.492 4.526-5.736 5.483l-38.202 28.148c-1.257.635-2.222.846-1.393-.76l13.757-29.97c1.13-2.45 3.345-5.1 5.304-6.588l38.947-29.545c2.06-1.567 4.17-1.874 3.274.004z"/>
	</g>
	<g>
		<path fill="#ffff25" d="M211.96 45.774l51.316-32.476c1.914-1.21 3.714-.583 4.896.434l50.34 43.282c2.02 1.82 1.918 5.086-.41 6.294l-48.38 32.297c-1.72 1.155-5.268 1.25-6.694 0l-51.44-45.12c-1.488-1.22-1.218-3.53.37-4.71z"/>
		<path fill="#ffff25" d="M353.09 171.2l46.045-34.83c1.793-1.357 6.122-.93 7.293.082l54.686 48.546c1.42 1.225 2.135 5.282.622 6.497l-46.814 34.712c-1.604 1.287-6.587 1.266-8.38-.348l-54.17-48.77c-1.418-1.28-.85-4.71.717-5.89z"/>
		<path fill="#2ac44b" d="M283.04 108.75l47.57-32.56c1.854-1.27 6.143-1.073 7.312-.062l50.705 43.84c2.307 1.994 2.15 5.936.578 7.07l-46.43 33.44c-3.253 2.344-6.63 1.483-9.092-.736l-50.87-45.83c-1.416-1.277-1.394-4.054.225-5.162z"/>
		<path fill="#2ac44b" d="M141.94 90.7l52.268-32.603c3.21-2.136 6.24-1.616 8.54.427l48.164 42.81c2.598 2.31 2.71 7.03.048 8.917l-47.58 33c-3.25 2.31-8.282 1.29-10.7-.94L142.887 96.3c-1.39-1.286-2.57-4.516-.95-5.595z"/>
		<path fill="#2ac44b" d="M214.41 154.16l48.977-33.56c1.812-1.243 6.013-1.056 7.15-.06l49.6 43.37c4.335 3.79 4.15 8.95 1.543 10.828l-55.93 40.292-52.783-52.887c-2.777-2.783-.763-6.47 1.442-7.982z"/>
		<path fill="#2ac44b" d="M288.37 221.89l48.806-36.125c1.76-1.302 6.017-1.08 7.126-.06l52.836 48.58c2.188 2.012 2.057 5.733.564 6.89l-48.913 37.96c-3.09 2.395-6.5 1.486-8.87-.72l-51.78-48.328c-2.49-2.32-2.18-6.42.22-8.198z"/>
	</g>
	<path d="M316.51 377.7c-1.173-5.673-3.5-11-3.5-11s4.085-3.834 2-13.25l-31.305-141.38c-2.112-9.538-5.127-15.892-17.324-20.506L89.63 124.7c-1.87-1.362-10.162-3.295-15.772.183l-55.35 34.314c-4.07 2.522-8.27 6.512-4.376 18.5l19 58.5c1.522 4.687 8.875 7.186 8.875 7.186s-4.932 3.942-2.375 11.814l19.125 58.875c.872 3.843 5.647 6.135 5.647 6.135s-3.66 1.503-1.772 7.24l15.75 47.875c1.613 4.904 3.002 10.516 8.25 13.625l46 27.25c4.887 2.816 5.92-1.463 5.92-1.463s-.536 3.62 4.67 7.052l50.534 30.035c7.137 4.18 10.982-1.25 10.982-1.25s-2.85 4.25 5.256 8.98l49.693 29.05c4.562 2.67 8.634 2.18 12.82-1.15l52.782-41.94c3.42-2.72 4.23-4.49 2.6-12.73L316.5 377.7z"/>
	<g>
		<path id="c" fill="url(#b)" d="M209.92 246.22c0 3.046-2.47 5.516-5.516 5.516s-5.515-2.47-5.515-5.516 2.46-5.516 5.51-5.516c3.04 0 5.51 2.47 5.51 5.516z"/>
		<use transform="translate(-110.31 26.163)" opacity=".6" xlink:href="#c"/>
		<use transform="translate(24.395 85.56)" opacity=".9" xlink:href="#c"/>
		<use transform="translate(-87.328 102.53)" opacity=".4" xlink:href="#c"/>
		<use transform="translate(-26.163 135.76)" opacity=".5" xlink:href="#c"/>
		<use transform="translate(42.426 167.58)" opacity=".6" xlink:href="#c"/>
		<use transform="translate(-71.064 -30.052)" xlink:href="#c"/>
		<use transform="translate(-134.7 -56.57)" xlink:href="#c"/>
		<use transform="translate(-45.255 53.74)" opacity=".6" xlink:href="#c"/>
		<use transform="matrix(.7888 -.3843 .182 .8914 -161.14 195.7)" opacity=".3" xlink:href="#e"/>
		<use transform="matrix(.7953 -.3706 .1664 .8944 -94.038 217.84)" opacity=".4" xlink:href="#e"/>
		<use transform="matrix(.7888 -.3843 .182 .8914 -222.25 169.45)" opacity=".2" xlink:href="#e"/>
	</g>
	<g opacity=".9">
		<path fill="#f03031" d="M276.01 214.68l12.24 57.327c.786 3.674-.357 9.633-2.61 11.29l-50.953 37.23c-5.56 4.09-8.605-.12-9.33-3.018l-15.087-60.4c-1.294-5.19 1.756-8.78 4.337-10.52l52.057-35.11c2.716-1.84 8.22-2.07 9.345 3.19z"/>
		<path fill="#2ac44b" d="M296.14 298.84l12.146 56.536c.797 3.492-1.472 8.816-3.562 10.472l-45.772 35.27c-3.478 2.756-9.92 2.657-10.89-1.32L234.3 341.864c-1.21-4.947 2.294-9.45 4.66-11.242l48.51-34.35c3.19-2.418 7.527-2.432 8.67 2.57z"/>
		<path fill="#ffff25" d="M313.68 380.74l11.598 53.464c.73 3.437-.57 7.807-2.623 9.428L276.54 480.14c-5.096 4.02-8.132 2.072-9.113-1.822l-12.93-54.65c-1.22-4.844 2.72-8.093 5.05-9.84l45.627-35.12c3.144-2.355 7.46-2.892 8.506 2.03z"/>
	</g>
	<g>
		<path fill="#355ee5" d="M147.57 208.52l51.08-35.895c3.036-2.02 7.883-1.553 11.598.053l51.48 20.04c3.436 1.487 3.635 4.795 1.248 6.44l-54.05 36.24c-4.27 2.943-8.705 2.966-12.256 1.35l-47.945-19.467c-4.54-2.06-5.505-5.86-1.156-8.76z"/>
		<path fill="#ffff25" d="M81.827 181.52l50.39-33.685c2.982-1.944 7.322-1.594 10.987-.116l43.128 16.37c4.78 1.93 2.953 5.3.614 6.9l-49.926 33.93c-4.18 2.85-8.488 3.88-11.963 2.32L81.5 190.14c-4.444-1.994-4.965-5.174.327-8.624z"/>
		<path fill="#f03031" d="M23.542 159.36l49.834-31.362c4.35-2.686 9.058-2.955 12.637-1.508l34.784 13.57c4.667 1.89 3.52 4.972 1.184 6.452l-50.7 32.563c-4.19 2.65-6.5 2.68-9.92 1.218l-39.75-16.155c-2.7-1.154-.52-3.263 1.94-4.778z"/>
	</g>
	<g opacity=".8">
		<path fill="#f03031" d="M168.16 320.91l13.738 53.993c.902 3.544 3.974 7.19 9.008 9.562l43.233 20.374c4.3 2.03 8.55 3.13 6.35-5.52l-13.78-54.06c-1.29-5.04-5.05-6.54-7.78-7.85l-45.11-21.65c-2.88-1.38-7.19-.85-5.67 5.14z"/>
		<path fill="#ffffff" d="M139.68 234.67l16.172 54.428c1.022 3.438 2.96 7.84 9.57 10.85l43.875 19.984c4.25 1.936 7.782 2.304 5.495-6.15l-14.564-56.232c-1.332-4.923-2.712-7.84-7.238-9.694l-47.755-20.682c-5.766-2.36-7.734.165-5.556 7.497z"/>
		<path fill="#355ee5" d="M190.42 401.6l11.38 41.863c.886 3.357 2.465 10.188 6.99 12.917l45.968 26.648c3.872 2.335 5.735-2.096 3.943-8.842l-12.03-46.576c-1.26-4.77-4.76-7.602-7.29-8.97l-44.56-21.922c-4.14-2.242-5.88-.79-4.38 4.882z"/>
		<path fill="#355ee5" d="M76.74 210l15.6 49.617c1.046 3.253 3.826 9.432 10.11 12.324l37.745 17.37c4.042 1.86 7.637 1.42 5.234-6.57l-14.76-49.05c-1.4-4.65-3.24-10.16-7.52-12L82.74 204.3c-5.45-2.345-8.24-1.222-6.01 5.713z"/>
		<path fill="#2ac44b" d="M17.896 183.7l15.125 46.864c1.46 5.532 2.58 8.113 6.57 10.097l37.07 15.75c5.09 1.65 4.94-1.21 2.54-9l-13.03-43.6c-1.4-4.53-4.09-9.48-8.28-11.26l-34.11-14.43c-5.34-2.26-7.98-1.21-5.86 5.58z"/>
		<path fill="#ff6031" d="M104.78 293.29l13.54 46.51c.958 3.29 3.26 6.863 9.383 10.126l37.62 20.05c3.94 2.098 5.825.336 4.534-4.682l-12.413-48.245c-1.214-4.72-2.138-9.06-6.345-11.09l-41.02-19.84c-5.88-2.85-7.35.14-5.31 7.16z"/>
		<path fill="#355ee5" d="M43.89 261.48l15.118 48.646c1.353 5.452 2.58 7.172 8.606 10.026l33.562 16.51c3.877 1.834 5.31-.11 3.756-5.46l-14.096-49.93c-1.306-4.496-3.727-9.35-7.837-11.158l-35.91-17.15c-4.48-1.97-5.38 1.84-3.2 8.518z"/>
		<path fill="#ffffff" d="M124.53 369.81l12.738 42.31c.94 3.215 3.978 6.66 9.82 10.107l37.362 21.886c3.758 2.217 6.633.985 5.34-3.913l-12.136-45.94c-1.216-4.605-2.41-8.212-6.447-10.35l-41.254-21.57c-7.86-4.162-7.568.133-5.423 7.47z"/>
		<path fill="#ffff25" d="M67.05 335.85l13.355 41.41c.97 3.2 2.345 7.213 8.16 10.68l36.234 21.256c3.74 2.23 6.29-.038 4.97-4.708l-13.93-44.39c-1.3-4.575-3.62-7.427-7.59-9.67l-37.13-20.835c-5.55-3.133-6.15-.566-4.08 6.257z"/>
	</g>
</svg>