<?xml version="1.0" encoding="utf-8"?>
<!-- Generator: Adobe Illustrator 22.0.1, SVG Export Plug-In . SVG Version: 6.00 Build 0)  -->
<svg version="1.1" xmlns="http://www.w3.org/2000/svg" xmlns:xlink="http://www.w3.org/1999/xlink" x="0px" y="0px"
	 viewBox="0 0 289.1 289.1" style="enable-background:new 0 0 289.1 289.1;" xml:space="preserve">
<style type="text/css">
	.st0{fill:none;}
	.st1{fill:#10384F;}
	.st2{fill:#89D329;}
	.st3{fill:#00BCFF;}
</style>
<g id="Background__x2013__does_NOT_print">
	<rect x="-0.1" y="0" class="st0" width="289.1" height="289.1"/>
</g>
<g id="Bayer_Cross">
	<g>
		<g>
			<path class="st1" d="M136.2,44.9h16.3c1.8,0,3.3-1.5,3.3-3.3c0-1.8-1.5-3.3-3.3-3.3h-16.3V44.9z M136.2,60.8H153
				c2.1,0,3.7-1.7,3.7-3.7c0-2.1-1.7-3.7-3.7-3.7h-16.8V60.8z M162.4,48.8c2.2,2.2,3.6,5.2,3.6,8.5c0,6.6-5.3,11.9-11.9,11.9h-27.3
				V30l26.9,0c6.3,0,11.4,5.1,11.4,11.4C165.1,44.2,164.1,46.8,162.4,48.8z"/>
			<path class="st1" d="M168.7,115.9h-10l-3.2-6.5h-21.9l-3.2,6.5h-10L140,76.7h9.1L168.7,115.9z M144.6,86.7l-6.9,14.2h13.8
				L144.6,86.7z"/>
			<polygon class="st1" points="157.9,124.3 169.1,124.3 149.2,149.8 149.2,163.5 139.9,163.5 139.9,149.8 120,124.3 131.3,124.3 
				144.6,142.1 			"/>
			<polygon class="st1" points="209.9,124.3 209.9,132.7 183.7,132.7 183.7,139.2 208.9,139.2 208.9,147.6 183.7,147.6 183.7,155.1 
				209.9,155.1 209.9,163.5 174.4,163.5 174.4,124.3 			"/>
			<path class="st1" d="M238.7,148.6h-7v14.9h-9.3v-39.2h23.8c6.7,0,12.1,5.5,12.1,12.1c0,5.5-3.7,10.2-8.7,11.6l11.5,15.4h-11.2
				L238.7,148.6z M245.3,132.7h-13.6v7.5h13.6c2.1,0,3.7-1.7,3.7-3.7C249,134.4,247.3,132.7,245.3,132.7z"/>
			<path class="st1" d="M124.4,163.5h-10l-3.2-6.5H89.3l-3.2,6.5h-10l19.6-39.2h9.1L124.4,163.5z M100.2,134.3l-6.9,14.2h13.8
				L100.2,134.3z"/>
			<path class="st1" d="M41,139.3h16.3c1.8,0,3.3-1.5,3.3-3.3c0-1.8-1.5-3.3-3.3-3.3l-16.3,0V139.3z M41,155.1h16.8
				c2.1,0,3.7-1.7,3.7-3.7c0-2.1-1.7-3.7-3.7-3.7H41V155.1z M67.3,143.1c2.2,2.2,3.6,5.2,3.6,8.5c0,6.6-5.3,11.9-11.9,11.9H31.7
				v-39.2h26.9c6.3,0,11.4,5.1,11.4,11.4C70,138.5,69,141.1,67.3,143.1z"/>
			<polygon class="st1" points="162.3,171.9 162.3,180.3 136.2,180.3 136.2,186.8 161.4,186.8 161.4,195.2 136.2,195.2 136.2,202.7 
				162.3,202.7 162.3,211.1 126.8,211.1 126.8,171.9 			"/>
			<path class="st1" d="M155.8,232.6c0-2.1-1.7-3.7-3.7-3.7h-15.9v7.5h15.9C154.1,236.3,155.8,234.6,155.8,232.6z M126.8,259.6
				v-39.2H153c6.7,0,12.1,5.5,12.1,12.2c0,5.1-3.1,9.4-7.5,11.3l11.8,15.8h-11.2l-11.2-14.9h-10.7v14.9H126.8z"/>
		</g>
		<path class="st2" d="M286.1,135.8c-4.5-74.2-66.1-133-141.5-133C69.3,2.8,7.7,61.6,3.1,135.8c0.2,3,0.4,5.9,0.8,8.8
			C7,169.3,16.4,192,30.5,211c25.8,35,67.3,57.7,114.1,57.7c-65.5,0-119.3-51-123.9-115.4c-0.2-2.9-0.3-5.8-0.3-8.8
			c0-3,0.1-5.9,0.3-8.8C25.3,71.4,79.1,20.4,144.6,20.4c46.8,0,88.3,22.7,114.1,57.7c14.1,19.1,23.5,41.8,26.5,66.6
			c0.4,2.9,0.6,5.8,0.8,8.7c0.2-2.9,0.3-5.8,0.3-8.8C286.3,141.6,286.2,138.7,286.1,135.8"/>
		<path class="st3" d="M3.1,153.3c4.5,74.2,66.1,133,141.5,133c75.3,0,136.9-58.8,141.5-133c-0.2-3-0.4-5.9-0.8-8.8
			c-3.1-24.7-12.5-47.4-26.5-66.4c-25.8-35-67.3-57.7-114.1-57.7c65.5,0,119.3,51,123.9,115.4c0.2,2.9,0.3,5.8,0.3,8.8
			c0,3-0.1,5.9-0.3,8.8c-4.5,64.4-58.3,115.4-123.9,115.4c-46.8,0-88.3-22.7-114.1-57.7C16.4,191.9,7,169.2,4,144.5
			c-0.4-2.9-0.6-5.8-0.8-8.7c-0.2,2.9-0.3,5.8-0.3,8.8C2.9,147.5,3,150.4,3.1,153.3"/>
	</g>
</g>
</svg>
