<?xml version="1.0" encoding="UTF-8"?>
<svg width="70" height="70" version="1.1" viewBox="0 0 18.521 18.521" xmlns="http://www.w3.org/2000/svg" xmlns:cc="http://creativecommons.org/ns#" xmlns:dc="http://purl.org/dc/elements/1.1/" xmlns:rdf="http://www.w3.org/1999/02/22-rdf-syntax-ns#">
 <metadata>
  <rdf:RDF>
   <cc:Work rdf:about="">
    <dc:format>image/svg+xml</dc:format>
    <dc:type rdf:resource="http://purl.org/dc/dcmitype/StillImage"/>
    <dc:title/>
   </cc:Work>
  </rdf:RDF>
 </metadata>
 <path d="m5.334 1.775c-1.0181 0-1.849 0.83238-1.849 1.8505v4.5284c0 1.0182 0.83084 1.85 1.849 1.85h4.9175v-0.72812h-1.1234v-2.4676h4.7406v-3.1827c0-1.0182-0.83031-1.8505-1.8485-1.8505zm-1.1224 1.872h4.1884v2.4347h-4.1884zm4.9165 0h4.0141v2.4347h-4.0141zm-4.9165 3.1613h4.1884v2.4676h-3.066c-0.6281 0-1.1224-0.49379-1.1224-1.1219z" color="#000000" color-rendering="auto" dominant-baseline="auto" fill="#007dad" image-rendering="auto" shape-rendering="auto" solid-color="#000000" stop-color="#000000" style="font-feature-settings:normal;font-variant-alternates:normal;font-variant-caps:normal;font-variant-east-asian:normal;font-variant-ligatures:normal;font-variant-numeric:normal;font-variant-position:normal;font-variation-settings:normal;inline-size:0;isolation:auto;mix-blend-mode:normal;shape-margin:0;shape-padding:0;text-decoration-color:#000000;text-decoration-line:none;text-decoration-style:solid;text-indent:0;text-orientation:mixed;text-transform:none;white-space:normal"/>
 <path d="m11.746 7.535c-0.42577 0-0.76843 0.34317-0.76843 0.76894v2.5208c0 0.42576 0.34266 0.76843 0.76843 0.76843h2.5208c0.42577 0 0.76843-0.34267 0.76843-0.76843v-2.5208c0-0.42577-0.34266-0.76894-0.76843-0.76894zm1.2599 0.51883c-0.0233 5e-3 0.0483 2e-3 0.0718 7e-3h5.29e-4c0.0234 4e-3 0.0458 0.0116 0.0682 0.0207 0.0227 9e-3 0.0447 0.0208 0.0656 0.0346h5.3e-4c0.0207 0.0137 0.0397 0.0298 0.0579 0.0481h5.29e-4l1.0635 1.0635c0.14654 0.14654 0.14654 0.38262 0 0.52917-0.14655 0.14654-0.38213 0.14656-0.52865 0l-0.4253-0.42582v1.3694c0 0.20724-0.16689 0.37414-0.37413 0.37414s-0.37414-0.1669-0.37414-0.37414v-1.3689l-0.4253 0.4253c-0.14659 0.1465-0.38262 0.14654-0.52917 0-0.14655-0.14655-0.14705-0.38262-5.29e-4 -0.52917l1.064-1.0635c0.0367-0.0366 0.0791-0.0644 0.12402-0.0827 0.0451-0.0183 0.18723-0.0378 0.14056-0.0274z" color="#000000" color-rendering="auto" dominant-baseline="auto" fill="#8ac9e1" image-rendering="auto" shape-rendering="auto" solid-color="#000000" stop-color="#000000" style="font-feature-settings:normal;font-variant-alternates:normal;font-variant-caps:normal;font-variant-east-asian:normal;font-variant-ligatures:normal;font-variant-numeric:normal;font-variant-position:normal;font-variation-settings:normal;inline-size:0;isolation:auto;mix-blend-mode:normal;shape-margin:0;shape-padding:0;text-decoration-color:#000000;text-decoration-line:none;text-decoration-style:solid;text-indent:0;text-orientation:mixed;text-transform:none;white-space:normal"/>
 <g fill="#007dad" stroke-width=".26458" aria-label="DATASET">
  <path d="m2.8704 16.711h0.5334c0.62865 0 0.97155-0.38735 0.97155-1.0509 0-0.6604-0.3429-1.0319-0.98425-1.0319h-0.5207zm0.26352-0.2159v-1.651h0.23812c0.48578 0 0.73025 0.2921 0.73025 0.81598 0 0.52705-0.24448 0.83502-0.73025 0.83502z"/>
  <path d="m5.4161 15.546c0.0762-0.23178 0.14288-0.46038 0.20638-0.70168h0.0127c0.066675 0.2413 0.13335 0.4699 0.20955 0.70168l0.098425 0.3175h-0.62548zm-0.635 1.1652h0.26988l0.20002-0.635h0.75882l0.19685 0.635h0.28258l-0.70485-2.0828h-0.29845z"/>
  <path d="m7.3102 16.711h0.2667v-1.8606h0.62865v-0.22225h-1.524v0.22225h0.62865z"/>
  <path d="m9.0769 15.546c0.0762-0.23178 0.14288-0.46038 0.20638-0.70168h0.0127c0.066675 0.2413 0.13335 0.4699 0.20955 0.70168l0.098425 0.3175h-0.62548zm-0.635 1.1652h0.26988l0.20002-0.635h0.75882l0.19685 0.635h0.28257l-0.70485-2.0828h-0.29845z"/>
  <path d="m11.291 16.749c0.43815 0 0.70802-0.26352 0.70802-0.59372 0-0.30798-0.18732-0.45085-0.42862-0.55562l-0.29528-0.127c-0.1651-0.06985-0.34608-0.14605-0.34608-0.34608 0-0.18732 0.15558-0.3048 0.38735-0.3048 0.19368 0 0.34608 0.0762 0.47308 0.19685l0.14288-0.17145c-0.14922-0.1524-0.3683-0.25718-0.61595-0.25718-0.37782 0-0.65405 0.23495-0.65405 0.55245 0 0.3048 0.22542 0.45402 0.42228 0.53658l0.29845 0.13018c0.19685 0.0889 0.34608 0.15558 0.34608 0.3683 0 0.2032-0.16192 0.33972-0.43498 0.33972-0.2159 0-0.42545-0.10478-0.57468-0.26035l-0.15875 0.18415c0.18098 0.18732 0.43815 0.30798 0.73025 0.30798z"/>
  <path d="m12.67 16.711h1.2319v-0.22542h-0.96838v-0.75565h0.79058v-0.22542h-0.79058v-0.65405h0.93662v-0.22225h-1.2002z"/>
  <path d="m15.041 16.711h0.2667v-1.8606h0.62865v-0.22225h-1.524v0.22225h0.62865z"/>
 </g>
</svg>
