<?xml version="1.0" encoding="UTF-8"?>
<svg width="70" height="70" version="1.1" viewBox="0 0 18.521 18.521" xmlns="http://www.w3.org/2000/svg" xmlns:cc="http://creativecommons.org/ns#" xmlns:dc="http://purl.org/dc/elements/1.1/" xmlns:rdf="http://www.w3.org/1999/02/22-rdf-syntax-ns#">
 <metadata>
  <rdf:RDF>
   <cc:Work rdf:about="">
    <dc:format>image/svg+xml</dc:format>
    <dc:type rdf:resource="http://purl.org/dc/dcmitype/StillImage"/>
    <dc:title/>
   </cc:Work>
  </rdf:RDF>
 </metadata>
 <path d="m8.6139 5.9735c-0.10161 2.6e-4 -0.20666 6e-3 -0.3142 0.0202-0.1231 0.0158-0.24935 0.0419-0.37723 0.0801-0.34079 0.1019-0.69272 0.29272-1.0258 0.6196 0.98085-0.13417 1.1652 0.5908 1.1984 0.79943 0.0323 0.20885 0.0538 0.30123 0.0879 0.38913 0.11766 0.30156 0.35061 0.55736 0.67076 0.69711 0.64038 0.27941 1.3871-0.0133 1.6666-0.65371 0.27943-0.64035-0.0136-1.3861-0.65371-1.6655 0 0-0.54012-0.28822-1.2521-0.28629zm3.0463 1.7523c-0.0639-7e-3 -0.12683-7e-3 -0.18913 5.3e-4 -0.0712 9e-3 -0.14155 0.0273-0.21084 0.0584-0.18481 0.0829-0.36331 0.25073-0.53692 0.52606-0.69448 1.1014 0.21274 1.5234 1.3229 2.0536 0.50005 0.23873 2.5219 1.2729 2.9254 0.63304 0.40316-0.64-1.3982-2.0238-1.8283-2.3735-0.54843-0.44584-1.0359-0.84651-1.4831-0.89814z" fill="#007dad"/>
 <path d="m9.7009 2.0549a0.4325 0.4325 0 0 0-0.0429 4e-3 0.4325 0.4325 0 0 0-0.1695 0.0594c-0.44531 0.27019-0.97466 0.703-1.5239 1.265a3.1399 3.1399 0 0 0-1.7405-0.27182 3.1399 3.1399 0 0 0-0.0264 4e-3 3.1399 3.1399 0 0 0-2.6805 3.5166 3.1399 3.1399 0 0 0 1.2511 2.1213c-0.18517 0.65152-0.31073 1.3305-0.34881 2.0304a0.4325 0.4325 0 0 0 0.40979 0.45423 0.4325 0.4325 0 0 0 0.45527-0.40773c0.0307-0.56375 0.12884-1.1167 0.27131-1.6547a3.1399 3.1399 0 0 0 1.4816 0.16329 3.1399 3.1399 0 0 0 1.1555-0.38964c-0.23612-0.18062-0.42478-0.41025-0.55345-0.66766a2.2906 2.2906 0 0 1-0.7121 0.21498 2.2906 2.2906 0 0 1-2.5678-1.9746 2.2906 2.2906 0 0 1 1.9746-2.5678 2.2906 2.2906 0 0 1 2.3993 1.3627c0.37997 0.0122 0.70446 0.0837 0.94671 0.16174a3.1399 3.1399 0 0 0-0.97255-1.6076c0.46932-0.46479 0.90354-0.81485 1.2299-1.0129a0.4325 0.4325 0 0 0 0.14469-0.59428 0.4325 0.4325 0 0 0-0.38137-0.20825z" fill="#8ac9e1"/>
 <g fill="#007dad" stroke-width=".26458" aria-label="ENCODING">
  <path d="m1.5424 16.674h1.2319v-0.22542h-0.96838v-0.75565h0.79058v-0.22542h-0.79058v-0.65405h0.93662v-0.22225h-1.2002z"/>
  <path d="m3.4813 16.674h0.25082v-1.089c0-0.21908-0.01905-0.44132-0.034925-0.65088h0.0127l0.22542 0.42862 0.75565 1.3113h0.27305v-2.0828h-0.25082v1.0763c0 0.21908 0.01905 0.45402 0.03175 0.66358h-0.0127l-0.22542-0.4318-0.75248-1.3081h-0.27305z"/>
  <path d="m6.5858 16.712c0.26988 0 0.47308-0.11112 0.63818-0.30162l-0.14605-0.1651c-0.13335 0.14605-0.28258 0.23495-0.4826 0.23495-0.3937 0-0.64452-0.3302-0.64452-0.85408 0-0.51752 0.26035-0.84138 0.65405-0.84138 0.1778 0 0.31432 0.07938 0.42545 0.19685l0.14288-0.17145c-0.12065-0.13652-0.3175-0.25718-0.5715-0.25718-0.53022 0-0.92392 0.40958-0.92392 1.0795 0 0.67945 0.38735 1.0795 0.90805 1.0795z"/>
  <path d="m8.5491 16.712c0.52388 0 0.89218-0.4191 0.89218-1.089 0-0.66358-0.3683-1.07-0.89218-1.07s-0.889 0.40322-0.889 1.07c0 0.66992 0.36512 1.089 0.889 1.089zm0-0.23178c-0.37148 0-0.61595-0.33655-0.61595-0.85725 0-0.51752 0.24448-0.8382 0.61595-0.8382s0.61595 0.32068 0.61595 0.8382c0 0.5207-0.24448 0.85725-0.61595 0.85725z"/>
  <path d="m10.154 16.674h0.5334c0.62865 0 0.97155-0.38735 0.97155-1.0509 0-0.6604-0.3429-1.0319-0.98425-1.0319h-0.5207zm0.26352-0.2159v-1.651h0.23812c0.48578 0 0.73025 0.2921 0.73025 0.81598 0 0.52705-0.24448 0.83502-0.73025 0.83502z"/>
  <path d="m12.372 16.674h0.26352v-2.0828h-0.26352z"/>
  <path d="m13.473 16.674h0.25082v-1.089c0-0.21908-0.01905-0.44132-0.03492-0.65088h0.0127l0.22542 0.42862 0.75565 1.3113h0.27305v-2.0828h-0.25082v1.0763c0 0.21908 0.01905 0.45402 0.03175 0.66358h-0.0127l-0.22542-0.4318-0.75248-1.3081h-0.27305z"/>
  <path d="m16.61 16.712c0.2794 0 0.508-0.1016 0.64135-0.2413v-0.8763h-0.68262v0.21908h0.44132v0.54292c-0.08255 0.0762-0.22542 0.12382-0.37465 0.12382-0.4445 0-0.69215-0.3302-0.69215-0.85408 0-0.51752 0.26988-0.84138 0.68898-0.84138 0.20955 0 0.3429 0.0889 0.44768 0.19685l0.14605-0.17145c-0.12065-0.127-0.31115-0.25718-0.60008-0.25718-0.55245 0-0.95568 0.40958-0.95568 1.0795 0 0.67945 0.39052 1.0795 0.9398 1.0795z"/>
 </g>
</svg>
