<?xml version="1.0" encoding="UTF-8" standalone="no"?>
<svg
   xmlns:dc="http://purl.org/dc/elements/1.1/"
   xmlns:cc="http://creativecommons.org/ns#"
   xmlns:rdf="http://www.w3.org/1999/02/22-rdf-syntax-ns#"
   xmlns:svg="http://www.w3.org/2000/svg"
   xmlns="http://www.w3.org/2000/svg"
   xmlns:sodipodi="http://sodipodi.sourceforge.net/DTD/sodipodi-0.dtd"
   xmlns:inkscape="http://www.inkscape.org/namespaces/inkscape"
   sodipodi:docname="pse_icon-project.svg"
   inkscape:version="1.0 (4035a4fb49, 2020-05-01)"
   id="svg2843"
   version="1.1"
   viewBox="0 0 18.520834 18.520834"
   height="70"
   width="70">
  <defs
     id="defs2837" />
  <sodipodi:namedview
     inkscape:window-maximized="0"
     inkscape:window-y="0"
     inkscape:window-x="2076"
     inkscape:window-height="1040"
     inkscape:window-width="1256"
     inkscape:snap-page="true"
     units="px"
     showgrid="false"
     inkscape:document-rotation="0"
     inkscape:current-layer="layer1"
     inkscape:document-units="mm"
     inkscape:cy="90.843943"
     inkscape:cx="69.873482"
     inkscape:zoom="1.828046"
     inkscape:pageshadow="2"
     inkscape:pageopacity="0.0"
     borderopacity="1.0"
     bordercolor="#666666"
     pagecolor="#ffffff"
     id="base" />
  <metadata
     id="metadata2840">
    <rdf:RDF>
      <cc:Work
         rdf:about="">
        <dc:format>image/svg+xml</dc:format>
        <dc:type
           rdf:resource="http://purl.org/dc/dcmitype/StillImage" />
        <dc:title></dc:title>
      </cc:Work>
    </rdf:RDF>
  </metadata>
  <g
     id="layer1"
     inkscape:groupmode="layer"
     inkscape:label="Ebene 1">
    <g
       transform="translate(0,0.04605604)"
       id="g4744">
      <path
         d="m 6.52682,1.859506 a 0.3640364,0.3640364 0 0 0 -0.17002,0.0491 l -2.20866,1.27537 a 0.3640364,0.3640364 0 0 0 -5.2e-4,5.29e-4 0.36399999,0.36399999 0 0 0 -0.016,0.0103 0.3640364,0.3640364 0 0 0 -0.006,0.004 0.36399999,0.36399999 0 0 0 -0.002,0.002 0.3640364,0.3640364 0 0 0 -0.0181,0.0134 0.36399999,0.36399999 0 0 0 -0.0134,0.0114 0.3640364,0.3640364 0 0 0 -0.006,0.005 0.36399999,0.36399999 0 0 0 -0.003,0.003 0.3640364,0.3640364 0 0 0 -0.0155,0.0155 0.36399999,0.36399999 0 0 0 -0.0155,0.0171 0.3640364,0.3640364 0 0 0 -0.003,0.003 0.36399999,0.36399999 0 0 0 -0.002,0.002 0.3640364,0.3640364 0 0 0 -0.0129,0.0181 0.36399999,0.36399999 0 0 0 -0.0109,0.0165 0.3640364,0.3640364 0 0 0 -0.005,0.008 0.36399999,0.36399999 0 0 0 -0.002,0.004 0.3640364,0.3640364 0 0 0 -0.009,0.0165 0.36399999,0.36399999 0 0 0 -0.008,0.016 0.3640364,0.3640364 0 0 0 -0.006,0.0145 0.36399999,0.36399999 0 0 0 0,5.29e-4 0.3640364,0.3640364 0 0 0 -0.008,0.0222 0.36399999,0.36399999 0 0 0 -0.002,0.006 0.3640364,0.3640364 0 0 0 -0.006,0.0212 0.3640364,0.3640364 0 0 0 -0.009,0.0517 0.3640364,0.3640364 0 0 0 -0.002,0.0258 0.3640364,0.3640364 0 0 0 -5.3e-4,0.007 v 2.550751 a 0.3640364,0.3640364 0 0 0 0.1819,0.314709 l 2.20865,1.27537 a 0.3640364,0.3640364 0 0 0 0.005,0.003 0.36399999,0.36399999 0 0 0 0.008,0.004 0.3640364,0.3640364 0 0 0 0.0667,0.0274 0.36399999,0.36399999 0 0 0 0.005,0.002 0.3640364,0.3640364 0 0 0 0.0165,0.005 0.36399999,0.36399999 0 0 0 0.016,0.003 0.3640364,0.3640364 0 0 0 0.005,10e-4 0.36399999,0.36399999 0 0 0 0.0594,0.005 0.36399999,0.36399999 0 0 0 0.0444,-0.003 0.3640364,0.3640364 0 0 0 0.008,-0.001 0.36399999,0.36399999 0 0 0 0.0181,-0.003 0.3640364,0.3640364 0 0 0 0.004,-10e-4 0.36399999,0.36399999 0 0 0 0.0217,-0.005 0.3640364,0.3640364 0 0 0 0.0165,-0.005 0.36399999,0.36399999 0 0 0 0.008,-0.003 0.3640364,0.3640364 0 0 0 0.007,-0.003 0.36399999,0.36399999 0 0 0 0.017,-0.007 0.3640364,0.3640364 0 0 0 0.007,-0.003 0.36399999,0.36399999 0 0 0 0.016,-0.008 0.3640364,0.3640364 0 0 0 0.007,-0.004 0.36399999,0.36399999 0 0 0 0.006,-0.004 l 2.20917,-1.27537 a 0.3640364,0.3640364 0 0 0 0.1819,-0.314709 v -2.55075 a 0.3640364,0.3640364 0 0 0 -0.003,-0.0372 0.3640364,0.3640364 0 0 0 -0.004,-0.0258 0.36399999,0.36399999 0 0 0 -0.003,-0.0145 0.3640364,0.3640364 0 0 0 -0.003,-0.0114 0.36399999,0.36399999 0 0 0 -5.3e-4,-0.004 0.3640364,0.3640364 0 0 0 -0.005,-0.017 0.3640364,0.3640364 0 0 0 -10e-4,-0.004 0.36399999,0.36399999 0 0 0 -0.005,-0.0139 0.3640364,0.3640364 0 0 0 -0.004,-0.01 0.36399999,0.36399999 0 0 0 -0.002,-0.003 0.3640364,0.3640364 0 0 0 -0.008,-0.0186 0.3640364,0.3640364 0 0 0 -10e-4,-0.002 0.36399999,0.36399999 0 0 0 -0.007,-0.0129 0.3640364,0.3640364 0 0 0 -0.004,-0.007 0.36399999,0.36399999 0 0 0 -0.01,-0.016 0.3640364,0.3640364 0 0 0 -0.004,-0.006 0.36399999,0.36399999 0 0 0 -0.0109,-0.015 0.36399999,0.36399999 0 0 0 -0.0165,-0.0202 0.36399999,0.36399999 0 0 0 -0.015,-0.0165 0.36399999,0.36399999 0 0 0 -0.003,-0.003 0.3640364,0.3640364 0 0 0 -0.005,-0.005 0.36399999,0.36399999 0 0 0 -0.0139,-0.0124 0.36399999,0.36399999 0 0 0 -0.0181,-0.0145 0.36399999,0.36399999 0 0 0 -0.003,-0.002 0.3640364,0.3640364 0 0 0 -0.006,-0.004 0.36399999,0.36399999 0 0 0 -0.0155,-0.0103 0.3640364,0.3640364 0 0 0 -0.006,-0.004 0.36399999,0.36399999 0 0 0 -0.007,-0.004 l -0.005,-0.003 a 0.36399999,0.36399999 0 0 0 -0.0114,-0.006 L 6.71629,1.910355 a 0.3640364,0.3640364 0 0 0 -0.18965,-0.0491 z m 0.0119,0.78341 1.48001,0.85628 -1.48001,0.85473 -1.48054,-0.85473 z m -1.84383,1.4857 1.48053,0.85473 v 1.70945 L 4.69489,5.838066 Z m 3.68763,0 v 1.70945 l -1.48053,0.85473 v -1.70945 z m 2.21279,0.0284 c -0.20724,0 -0.37414,0.16637 -0.37414,0.37362 0,0.207241 0.1669,0.37339 0.37414,0.374141 H 13.807 v 4.042129 h -2.52493 l 0.42529,-0.4253 c 0.1465,-0.14659 0.14659,-0.38208 0,-0.52865 -0.14654,-0.14655 -0.38261,-0.14706 -0.52916,-5.29e-4 l -1.06299,1.06402 c -0.0367,0.0367 -0.0649,0.0791 -0.0832,0.12402 -0.0183,0.0451 -0.0266,0.0929 -0.0269,0.14056 -1.9e-4,0.0239 0.002,0.0478 0.006,0.0713 v 5.29e-4 c 0.004,0.0234 0.0121,0.0463 0.0212,0.0687 0.009,0.0227 0.0203,0.0442 0.0341,0.0651 v 5.29e-4 c 0.0137,0.0207 0.0304,0.0402 0.0486,0.0584 v 5.29e-4 l 1.0635,1.063499 c 0.14654,0.14655 0.38262,0.14655 0.52917,0 0.14655,-0.14655 0.14654,-0.38265 0,-0.52916 l -0.42582,-0.4253 h 2.89854 c 0.2062,0 0.37191,-0.164757 0.37361,-0.370517 h 5.3e-4 v -0.003 c -2.6e-4,-1.310951 5.3e-4,-3.479761 5.3e-4,-4.790411 0,-0.20617 -0.16476,-0.37191 -0.37052,-0.37362 v -5.29e-4 h -0.003 z"
         style="color:#000000;font-style:normal;font-variant:normal;font-weight:normal;font-stretch:normal;font-size:medium;line-height:normal;font-family:sans-serif;font-variant-ligatures:normal;font-variant-position:normal;font-variant-caps:normal;font-variant-numeric:normal;font-variant-alternates:normal;font-variant-east-asian:normal;font-feature-settings:normal;font-variation-settings:normal;text-indent:0;text-align:start;text-decoration:none;text-decoration-line:none;text-decoration-style:solid;text-decoration-color:#000000;letter-spacing:normal;word-spacing:normal;text-transform:none;writing-mode:lr-tb;direction:ltr;text-orientation:mixed;dominant-baseline:auto;baseline-shift:baseline;text-anchor:start;white-space:normal;shape-padding:0;shape-margin:0;inline-size:0;clip-rule:nonzero;display:inline;overflow:visible;visibility:visible;isolation:auto;mix-blend-mode:normal;color-interpolation:sRGB;color-interpolation-filters:linearRGB;solid-color:#000000;solid-opacity:1;vector-effect:none;fill:#007dad;fill-opacity:1;fill-rule:nonzero;stroke:none;stroke-width:0.728001;stroke-linecap:round;stroke-linejoin:round;stroke-miterlimit:4;stroke-dasharray:none;stroke-dashoffset:0;stroke-opacity:1;color-rendering:auto;image-rendering:auto;shape-rendering:auto;text-rendering:auto;enable-background:accumulate;stop-color:#000000"
         id="path951" />
      <path
         style="color:#000000;font-style:normal;font-variant:normal;font-weight:normal;font-stretch:normal;font-size:medium;line-height:normal;font-family:sans-serif;font-variant-ligatures:normal;font-variant-position:normal;font-variant-caps:normal;font-variant-numeric:normal;font-variant-alternates:normal;font-variant-east-asian:normal;font-feature-settings:normal;font-variation-settings:normal;text-indent:0;text-align:start;text-decoration:none;text-decoration-line:none;text-decoration-style:solid;text-decoration-color:#000000;letter-spacing:normal;word-spacing:normal;text-transform:none;writing-mode:lr-tb;direction:ltr;text-orientation:mixed;dominant-baseline:auto;baseline-shift:baseline;text-anchor:start;white-space:normal;shape-padding:0;shape-margin:0;inline-size:0;clip-rule:nonzero;display:inline;overflow:visible;visibility:visible;isolation:auto;mix-blend-mode:normal;color-interpolation:sRGB;color-interpolation-filters:linearRGB;solid-color:#000000;solid-opacity:1;vector-effect:none;fill:#8ac9e1;fill-opacity:1;fill-rule:nonzero;stroke:none;stroke-width:0.728001;stroke-linecap:round;stroke-linejoin:round;stroke-miterlimit:4;stroke-dasharray:none;stroke-dashoffset:0;stroke-opacity:1;color-rendering:auto;image-rendering:auto;shape-rendering:auto;text-rendering:auto;enable-background:accumulate;stop-color:#000000"
         d="m 6.56324,8.391966 c -0.12469,0 -0.24914,0.0293 -0.34468,0.0884 l -1.92083,1.18804 c -0.19107,0.118207 -0.19107,0.308627 0,0.426847 l 1.87018,1.15703 c 0.19109,0.11822 0.4988,0.11822 0.68989,0 l 1.92029,-1.18804 c 0.19109,-0.11822 0.19109,-0.30863 0,-0.426847 L 6.90792,8.480366 c -0.0955,-0.0591 -0.21999,-0.0884 -0.34468,-0.0884 z"
         id="path953" />
      <text
         id="text981"
         y="16.62746"
         x="9.1717348"
         style="font-size:3.175px;line-height:1;font-family:sans-serif;letter-spacing:0.264583px;fill:#007dad;fill-opacity:1;stroke-width:0.264583"
         xml:space="preserve"><tspan
           id="tspan979"
           style="font-style:normal;font-variant:normal;font-weight:normal;font-stretch:normal;font-size:3.175px;font-family:'Source Sans Pro';-inkscape-font-specification:'Source Sans Pro';text-align:center;text-anchor:middle;fill:#007dad;fill-opacity:1;stroke-width:0.264583"
           y="16.62746"
           x="9.3040266"
           sodipodi:role="line">PROJECT</tspan></text>
    </g>
  </g>
</svg>
