<?xml version="1.0" encoding="UTF-8" standalone="no"?>
<svg
   xmlns:dc="http://purl.org/dc/elements/1.1/"
   xmlns:cc="http://creativecommons.org/ns#"
   xmlns:rdf="http://www.w3.org/1999/02/22-rdf-syntax-ns#"
   xmlns:svg="http://www.w3.org/2000/svg"
   xmlns="http://www.w3.org/2000/svg"
   xmlns:sodipodi="http://sodipodi.sourceforge.net/DTD/sodipodi-0.dtd"
   xmlns:inkscape="http://www.inkscape.org/namespaces/inkscape"
   inkscape:export-ydpi="200"
   inkscape:export-xdpi="200"
   inkscape:export-filename="D:\Dokumente\Dissertation\Designs\Vis Group Logo\DataVisGroup_White2.png"
   width="178.80009mm"
   height="56mm"
   viewBox="0 0 178.80009 56"
   version="1.1"
   id="svg8"
   inkscape:version="1.0 (4035a4fb49, 2020-05-01)"
   sodipodi:docname="vis-logo-svg.svg">
  <defs
     id="defs2" />
  <sodipodi:namedview
     id="base"
     pagecolor="#ffffff"
     bordercolor="#666666"
     borderopacity="1.0"
     inkscape:pageopacity="1"
     inkscape:pageshadow="2"
     inkscape:zoom="1.6132129"
     inkscape:cx="244.94529"
     inkscape:cy="68.75558"
     inkscape:document-units="mm"
     inkscape:current-layer="layer1"
     inkscape:document-rotation="0"
     showgrid="false"
     inkscape:snap-global="true"
     fit-margin-top="3"
     fit-margin-left="3"
     fit-margin-right="3"
     fit-margin-bottom="3"
     inkscape:window-width="1920"
     inkscape:window-height="1017"
     inkscape:window-x="1912"
     inkscape:window-y="-8"
     inkscape:window-maximized="1"
     inkscape:snap-object-midpoints="true"
     inkscape:snap-bbox="false"
     inkscape:object-paths="true" />
  <metadata
     id="metadata5">
    <rdf:RDF>
      <cc:Work
         rdf:about="">
        <dc:format>image/svg+xml</dc:format>
        <dc:type
           rdf:resource="http://purl.org/dc/dcmitype/StillImage" />
        <dc:title></dc:title>
      </cc:Work>
    </rdf:RDF>
  </metadata>
  <g
     inkscape:label="Ebene 1"
     inkscape:groupmode="layer"
     id="layer1"
     transform="translate(-105.59018,-189.27042)">
    <path
       style="fill:#bfbfbf;fill-opacity:1;stroke-width:0.0107817"
       d="m 231.44946,207.64874 c -0.51726,-0.0284 -0.96527,-0.0828 -1.4124,-0.17148 -1.17619,-0.23327 -2.15652,-0.68235 -2.97626,-1.36341 -0.17132,-0.14233 -0.53317,-0.50433 -0.67861,-0.67891 -0.91597,-1.09936 -1.4331,-2.52971 -1.56314,-4.32348 -0.029,-0.39929 -0.0324,-0.91432 -0.0327,-4.79519 v -4.04584 h 1.83269 1.83267 l 0.004,4.18602 c 0.004,4.56852 -7.4e-4,4.23484 0.0624,4.68434 0.2096,1.49464 0.95838,2.51386 2.15075,2.92762 0.25299,0.0878 0.51012,0.14594 0.82973,0.1877 0.21681,0.0282 0.87845,0.0284 1.10492,1.4e-4 0.66793,-0.0832 1.18744,-0.27029 1.63903,-0.58995 0.72373,-0.51224 1.18254,-1.35092 1.34171,-2.45244 0.0567,-0.39208 0.0528,-0.0735 0.0568,-4.68196 l 0.004,-4.26148 h 1.83268 1.83272 v 4.05124 c 0,4.04391 -0.003,4.3193 -0.0381,4.779 -0.14057,1.80145 -0.68823,3.26874 -1.62641,4.35747 -0.16359,0.18986 -0.47264,0.49499 -0.65347,0.64519 -1.12037,0.93057 -2.56246,1.438 -4.38129,1.54167 -0.17011,0.0107 -1.00316,0.0134 -1.16053,0.004 z m -35.11075,-0.0211 c -0.18077,-0.012 -0.49187,-0.0401 -0.63072,-0.0585 -1.53375,-0.20383 -2.84268,-0.84817 -3.93019,-1.93472 -0.11289,-0.11275 -0.26204,-0.27017 -0.33163,-0.34992 l -0.12661,-0.145 0.0364,-0.0382 c 0.02,-0.0211 0.53013,-0.58896 1.13364,-1.26202 0.60352,-0.67303 1.10568,-1.23261 1.1159,-1.2435 0.0179,-0.0191 0.0302,-0.008 0.30852,0.27055 0.3886,0.38915 0.60719,0.57358 0.94218,0.79497 0.5638,0.37255 1.10183,0.55192 1.71968,0.57326 0.96469,0.0333 1.66254,-0.3463 2.02776,-1.1031 0.15056,-0.31193 0.2377,-0.65366 0.29239,-1.14662 0.0172,-0.15504 0.0188,-0.51243 0.022,-4.94074 l 0.004,-4.77361 h 1.87599 1.87597 l -0.004,4.94612 c -0.003,3.70417 -0.006,4.98131 -0.0163,5.08627 -0.0529,0.57969 -0.11488,0.96417 -0.22244,1.38008 -0.22865,0.88404 -0.61375,1.61893 -1.1812,2.25398 -0.21851,0.24456 -0.54061,0.52114 -0.84085,0.72205 -0.80339,0.53762 -1.73222,0.84055 -2.91108,0.94942 -0.17831,0.0163 -0.98705,0.03 -1.15903,0.0193 z m 9.06206,-2.00405 v -1.80593 h 4.16174 c 2.28898,0 4.16177,-0.004 4.16177,-0.009 0,-0.005 -1.87257,-1.61175 -4.16126,-3.57145 l -4.16124,-3.56312 -4.9e-4,-2.19677 c -2.5e-4,-1.20824 9.1e-4,-2.19678 0.005,-2.19678 0.004,0 7.50214,6.41895 8.30895,7.11254 0.0154,0.0133 0.47912,-0.38039 4.16218,-3.53528 2.2796,-1.95266 4.153,-3.55696 4.16314,-3.5651 0.0173,-0.014 0.0184,0.11102 0.0184,2.18339 v 2.19826 l -4.15906,3.56202 c -2.28748,1.95913 -4.16067,3.56624 -4.16266,3.57136 -0.003,0.005 1.82202,0.009 4.15907,0.009 h 4.16265 v 1.80593 1.80597 h -8.3289 -8.3289 z"
       id="path863"
       sodipodi:nodetypes="cssssccccccsscssccccscsssccscsscssssssssscccssssssssccsssccssssscscscccccc" />
    <path
       id="path6"
       style="fill:#bfbfbf;fill-opacity:1;stroke-width:0.0434033"
       d="m 147.40415,192.27042 c -7.58236,0.0132 -14.7839,2.02398 -21.60453,6.03273 -6.84327,4.02204 -12.29039,9.34619 -16.34137,15.97243 -0.57871,1.01275 -0.86807,2.01103 -0.86807,2.99484 0,0.98381 0.28936,1.98208 0.86807,2.99483 4.05098,6.62625 9.4981,11.95039 16.34137,15.97244 6.82063,4.00874 14.02217,6.01947 21.60453,6.03273 v -5.55564 c -6.74216,-0.013 -13.0033,-1.77056 -18.78331,-5.27317 -5.80159,-3.51567 -10.62659,-8.2394 -14.47503,-14.17119 4.39821,-6.8288 9.91044,-11.93593 16.53669,-15.32139 -1.76507,3.0093 -2.64761,6.26455 -2.64761,9.76576 0,5.35307 1.90251,9.93213 5.70754,13.73716 3.78712,3.78712 8.69611,6.37777 13.66172,6.39441 z m -6.06528,8.09065 c 0.003,-1e-5 0.007,-1e-5 0.0104,0 1.15052,0 2.0832,0.93268 2.0832,2.0832 -1e-5,0.75025 -0.40344,1.44255 -1.05618,1.81243 -0.44477,0.31267 -0.87064,0.67143 -1.27701,1.07779 -1.76507,1.76507 -2.6476,3.89183 -2.6476,6.3803 0,0.57871 -0.20255,1.07061 -0.60765,1.47571 -0.4051,0.4051 -0.897,0.60765 -1.47572,0.60765 -0.57871,0 -1.07061,-0.20255 -1.47571,-0.60765 -0.4051,-0.4051 -0.60765,-0.897 -0.60765,-1.47571 0,-3.61695 1.29487,-6.72029 3.8846,-9.31003 0.59654,-0.59653 1.22086,-1.12299 1.87194,-1.58201 0.36762,-0.29651 0.82507,-0.4593 1.29736,-0.46168 z"
       sodipodi:nodetypes="cscscsccsccssccscscssssssscss" />
    <path
       sodipodi:nodetypes="ccccc"
       d="M 149.52441,223.54257 H 176.733 l -1e-5,8.30379 h -27.20858 z"
       style="fill:#007dad;fill-opacity:1;stroke-width:0.303198;stroke-linecap:round;stroke-linejoin:round"
       id="path888" />
    <path
       id="path890"
       style="fill:#f15a4e;fill-opacity:1;stroke-width:0.217828;stroke-linecap:round;stroke-linejoin:round"
       d="m 149.52441,233.96662 h 14.04374 v 8.30379 h -14.04374 z"
       sodipodi:nodetypes="ccccc" />
    <path
       id="path907"
       style="fill:#ae619d;fill-opacity:1;stroke-width:0.156188;stroke-linecap:round;stroke-linejoin:round"
       d="m 149.52441,192.27042 h 7.22019 l -1e-5,8.30379 h -7.22019 z"
       sodipodi:nodetypes="ccccc" />
    <path
       sodipodi:nodetypes="ccccc"
       d="m 149.52441,202.69447 h 21.55064 v 8.30379 H 149.5244 Z"
       style="fill:#b2d349;fill-opacity:1;stroke-width:0.26984;stroke-linecap:round;stroke-linejoin:round"
       id="path909" />
    <path
       id="path911"
       style="fill:#fdb812;fill-opacity:1;stroke-width:0.338262;stroke-linecap:round;stroke-linejoin:round"
       d="m 149.52441,213.11852 h 33.86557 v 8.30379 H 149.5244 Z"
       sodipodi:nodetypes="ccccc" />
    <text
       id="text907"
       y="202.15303"
       x="196.79936"
       style="font-style:normal;font-variant:normal;font-weight:600;font-stretch:normal;font-size:15.1978px;line-height:1.05;font-family:Montserrat;-inkscape-font-specification:'Montserrat Semi-Bold';letter-spacing:-0.079375px;fill:#404040;fill-opacity:1;stroke:none;stroke-width:0.316623"
       xml:space="preserve"
       transform="scale(0.97253086,1.028245)"><tspan
         id="tspan905"
         style="font-style:normal;font-variant:normal;font-weight:600;font-stretch:normal;font-size:15.1978px;font-family:Montserrat;-inkscape-font-specification:'Montserrat Semi-Bold';fill:#404040;fill-opacity:1;stroke-width:0.316623"
         y="202.15303"
         x="196.79936"
         sodipodi:role="line" /><tspan
         style="font-style:normal;font-variant:normal;font-weight:600;font-stretch:normal;font-size:15.1978px;font-family:Montserrat;-inkscape-font-specification:'Montserrat Semi-Bold';fill:#404040;fill-opacity:1;stroke-width:0.316623"
         y="218.11072"
         x="196.79936"
         sodipodi:role="line"
         id="tspan921">Visual Data</tspan><tspan
         style="font-style:normal;font-variant:normal;font-weight:600;font-stretch:normal;font-size:15.1978px;font-family:Montserrat;-inkscape-font-specification:'Montserrat Semi-Bold';fill:#404040;fill-opacity:1;stroke-width:0.316623"
         y="234.06841"
         x="196.79936"
         sodipodi:role="line"
         id="tspan923">Science Lab</tspan></text>
  </g>
</svg>
