<?xml version="1.0" encoding="UTF-8"?>
<svg width="70" height="70" version="1.1" viewBox="0 0 18.521 18.521" xmlns="http://www.w3.org/2000/svg" xmlns:cc="http://creativecommons.org/ns#" xmlns:dc="http://purl.org/dc/elements/1.1/" xmlns:rdf="http://www.w3.org/1999/02/22-rdf-syntax-ns#">
 <metadata>
  <rdf:RDF>
   <cc:Work rdf:about="">
    <dc:format>image/svg+xml</dc:format>
    <dc:type rdf:resource="http://purl.org/dc/dcmitype/StillImage"/>
    <dc:title/>
   </cc:Work>
  </rdf:RDF>
 </metadata>
 <g transform="translate(-31.462 -34.702)">
  <path d="m36.796 36.477c-1.0181 0-1.849 0.83238-1.849 1.8505v4.5284c0 1.0182 0.83084 1.85 1.849 1.85h4.9175v-0.72812h-1.1234v-2.4676h4.7406v-3.1827c0-1.0182-0.83031-1.8505-1.8485-1.8505zm-1.1224 1.872h4.1884v2.4347h-4.1884zm4.9165 0h4.0141v2.4347h-4.0141zm-4.9165 3.1613h4.1884v2.4676h-3.066c-0.6281 0-1.1224-0.49379-1.1224-1.1219z" color="#000000" color-rendering="auto" dominant-baseline="auto" fill="#007dad" image-rendering="auto" shape-rendering="auto" solid-color="#000000" stop-color="#000000" style="font-feature-settings:normal;font-variant-alternates:normal;font-variant-caps:normal;font-variant-east-asian:normal;font-variant-ligatures:normal;font-variant-numeric:normal;font-variant-position:normal;font-variation-settings:normal;inline-size:0;isolation:auto;mix-blend-mode:normal;shape-margin:0;shape-padding:0;text-decoration-color:#000000;text-decoration-line:none;text-decoration-style:solid;text-indent:0;text-orientation:mixed;text-transform:none;white-space:normal"/>
  <path d="m43.208 42.237c-0.42577 0-0.76843 0.34317-0.76843 0.76894v2.5208c0 0.42576 0.34266 0.76843 0.76843 0.76843h2.5208c0.42577 0 0.76843-0.34267 0.76843-0.76843v-2.5208c0-0.42577-0.34266-0.76894-0.76843-0.76894zm1.2599 0.51883c-0.0233 5e-3 0.0483 2e-3 0.0718 7e-3h5.29e-4c0.0234 4e-3 0.0458 0.0116 0.0682 0.0207 0.0227 9e-3 0.0447 0.0208 0.0656 0.0346h5.3e-4c0.0207 0.0137 0.0397 0.0298 0.0579 0.0481h5.29e-4l1.0635 1.0635c0.14654 0.14654 0.14654 0.38262 0 0.52917-0.14655 0.14654-0.38213 0.14656-0.52865 0l-0.4253-0.42582v1.3694c0 0.20724-0.16689 0.37414-0.37413 0.37414s-0.37414-0.1669-0.37414-0.37414v-1.3689l-0.4253 0.4253c-0.14659 0.1465-0.38262 0.14654-0.52917 0-0.14655-0.14655-0.14705-0.38262-5.29e-4 -0.52917l1.064-1.0635c0.0367-0.0366 0.0791-0.0644 0.12402-0.0827 0.0451-0.0183 0.18723-0.0378 0.14056-0.0274z" color="#000000" color-rendering="auto" dominant-baseline="auto" fill="#8ac9e1" image-rendering="auto" shape-rendering="auto" solid-color="#000000" stop-color="#000000" style="font-feature-settings:normal;font-variant-alternates:normal;font-variant-caps:normal;font-variant-east-asian:normal;font-variant-ligatures:normal;font-variant-numeric:normal;font-variant-position:normal;font-variation-settings:normal;inline-size:0;isolation:auto;mix-blend-mode:normal;shape-margin:0;shape-padding:0;text-decoration-color:#000000;text-decoration-line:none;text-decoration-style:solid;text-indent:0;text-orientation:mixed;text-transform:none;white-space:normal"/>
  <text x="40.633327" y="51.413383" fill="#007dad" font-family="sans-serif" font-size="3.175px" letter-spacing=".26458px" stroke-width=".26458" style="line-height:1" xml:space="preserve"><tspan x="40.765617" y="51.413383" fill="#007dad" font-family="'Source Sans Pro'" font-size="3.175px" stroke-width=".26458" text-align="center" text-anchor="middle">DATASET</tspan></text>
 </g>
</svg>
