<?xml version="1.0" encoding="UTF-8"?>
<svg width="70" height="70" version="1.1" viewBox="0 0 18.521 18.521" xmlns="http://www.w3.org/2000/svg" xmlns:cc="http://creativecommons.org/ns#" xmlns:dc="http://purl.org/dc/elements/1.1/" xmlns:rdf="http://www.w3.org/1999/02/22-rdf-syntax-ns#">
 <metadata>
  <rdf:RDF>
   <cc:Work rdf:about="">
    <dc:format>image/svg+xml</dc:format>
    <dc:type rdf:resource="http://purl.org/dc/dcmitype/StillImage"/>
    <dc:title/>
   </cc:Work>
  </rdf:RDF>
 </metadata>
 <g>
  <g shape-rendering="auto">
   <path d="m6.3568 1.9547-2.2087 1.2754-5.2e-4 5.29e-4c-0.13549 0.088322-0.18183 0.20986-0.18183 0.31473v2.5508c1.739e-4 0.12983 0.069484 0.24975 0.1819 0.31471l2.2086 1.2754c0.1234 0.068211 0.24952 0.065512 0.3623 4e-4l2.2092-1.2754c0.11242-0.06496 0.18173-0.18487 0.1819-0.31471v-2.5508c0-0.13285-0.066503-0.24565-0.20083-0.3232l-2.1926-1.2661c-0.13215-0.068595-0.24556-0.067524-0.35949-0.001749zm0.18192 0.73431 1.48 0.85628-1.48 0.85473-1.4805-0.85473zm-1.8438 1.4857 1.4805 0.85473v1.7094l-1.4805-0.85473zm3.6876 0v1.7094l-1.4805 0.85473v-1.7094zm2.2128 0.0284c-0.20724 0-0.37414 0.16637-0.37414 0.37362 0 0.20724 0.1669 0.37339 0.37414 0.37414h3.2117v4.0421h-2.5249l0.42529-0.4253c0.1465-0.14659 0.14659-0.38208 0-0.52865-0.14654-0.14655-0.38261-0.14706-0.52916-5.29e-4l-1.063 1.064c-0.0367 0.0367-0.0649 0.0791-0.0832 0.12402-0.0183 0.0451-0.0266 0.0929-0.0269 0.14056-1.9e-4 0.0239 2e-3 0.0478 6e-3 0.0713v5.29e-4c4e-3 0.0234 0.0121 0.0463 0.0212 0.0687 9e-3 0.0227 0.0203 0.0442 0.0341 0.0651v5.29e-4c0.0137 0.0207 0.0304 0.0402 0.0486 0.0584v5.29e-4l1.0635 1.0635c0.14654 0.14655 0.38262 0.14655 0.52917 0s0.14654-0.38265 0-0.52916l-0.42582-0.4253h2.8985c0.2062 0 0.37191-0.16476 0.37361-0.37052h5.3e-4v-3e-3c-2.6e-4 -1.311 5.3e-4 -3.4798 5.3e-4 -4.7904 0-0.20617-0.16476-0.37191-0.37052-0.37362v-5.29e-4h-3e-3z" color="#000000" color-rendering="auto" dominant-baseline="auto" fill="#007dad" image-rendering="auto" solid-color="#000000" stop-color="#000000" style="font-feature-settings:normal;font-variant-alternates:normal;font-variant-caps:normal;font-variant-east-asian:normal;font-variant-ligatures:normal;font-variant-numeric:normal;font-variant-position:normal;font-variation-settings:normal;inline-size:0;isolation:auto;mix-blend-mode:normal;shape-margin:0;shape-padding:0;text-decoration-color:#000000;text-decoration-line:none;text-decoration-style:solid;text-indent:0;text-orientation:mixed;text-transform:none;white-space:normal"/>
   <path d="m6.5632 8.438c-0.12469 0-0.24914 0.0293-0.34468 0.0884l-1.9208 1.188c-0.19107 0.11821-0.19107 0.30863 0 0.42685l1.8702 1.157c0.19109 0.11822 0.4988 0.11822 0.68989 0l1.9203-1.188c0.19109-0.11822 0.19109-0.30863 0-0.42685l-1.8702-1.157c-0.0955-0.0591-0.21999-0.0884-0.34468-0.0884z" color="#000000" color-rendering="auto" dominant-baseline="auto" fill="#8ac9e1" image-rendering="auto" solid-color="#000000" stop-color="#000000" style="font-feature-settings:normal;font-variant-alternates:normal;font-variant-caps:normal;font-variant-east-asian:normal;font-variant-ligatures:normal;font-variant-numeric:normal;font-variant-position:normal;font-variation-settings:normal;inline-size:0;isolation:auto;mix-blend-mode:normal;shape-margin:0;shape-padding:0;text-decoration-color:#000000;text-decoration-line:none;text-decoration-style:solid;text-indent:0;text-orientation:mixed;text-transform:none;white-space:normal"/>
  </g>
  <text x="9.1717348" y="16.673517" fill="#007dad" font-family="sans-serif" font-size="3.175px" letter-spacing=".26458px" stroke-width=".26458" style="line-height:1" xml:space="preserve"><tspan x="9.3040266" y="16.673517" fill="#007dad" font-family="'Source Sans Pro'" font-size="3.175px" stroke-width=".26458" text-align="center" text-anchor="middle">PROJECT</tspan></text>
 </g>
</svg>
