<?xml version="1.0" encoding="UTF-8"?>
<svg width="70" height="70" version="1.1" viewBox="0 0 18.521 18.521" xmlns="http://www.w3.org/2000/svg" xmlns:cc="http://creativecommons.org/ns#" xmlns:dc="http://purl.org/dc/elements/1.1/" xmlns:rdf="http://www.w3.org/1999/02/22-rdf-syntax-ns#">
 <metadata>
  <rdf:RDF>
   <cc:Work rdf:about="">
    <dc:format>image/svg+xml</dc:format>
    <dc:type rdf:resource="http://purl.org/dc/dcmitype/StillImage"/>
    <dc:title/>
   </cc:Work>
  </rdf:RDF>
 </metadata>
 <g transform="translate(0 .12071)">
  <path d="m8.6139 5.8528c-0.10161 2.6e-4 -0.20666 6e-3 -0.3142 0.0202-0.1231 0.0158-0.24935 0.0419-0.37723 0.0801-0.34079 0.1019-0.69272 0.29272-1.0258 0.6196 0.98085-0.13417 1.1652 0.5908 1.1984 0.79943 0.0323 0.20885 0.0538 0.30123 0.0879 0.38913 0.11766 0.30156 0.35061 0.55736 0.67076 0.69711 0.64038 0.27941 1.3871-0.0133 1.6666-0.65371 0.27943-0.64035-0.0136-1.3861-0.65371-1.6655 0 0-0.54012-0.28822-1.2521-0.28629zm3.0463 1.7523c-0.0639-7e-3 -0.12683-7e-3 -0.18913 5.3e-4 -0.0712 9e-3 -0.14155 0.0273-0.21084 0.0584-0.18481 0.0829-0.36331 0.25073-0.53692 0.52606-0.69448 1.1014 0.21274 1.5234 1.3229 2.0536 0.50005 0.23873 2.5219 1.2729 2.9254 0.63304 0.40316-0.64-1.3982-2.0238-1.8283-2.3735-0.54843-0.44584-1.0359-0.84651-1.4831-0.89814z" fill="#007dad"/>
  <path d="m9.7009 1.9342a0.4325 0.4325 0 0 0-0.0429 4e-3 0.4325 0.4325 0 0 0-0.1695 0.0594c-0.44531 0.27019-0.97466 0.703-1.5239 1.265a3.1399 3.1399 0 0 0-1.7405-0.27182 3.1399 3.1399 0 0 0-0.0264 4e-3 3.1399 3.1399 0 0 0-2.6805 3.5166 3.1399 3.1399 0 0 0 1.2511 2.1213c-0.18517 0.65152-0.31073 1.3305-0.34881 2.0304a0.4325 0.4325 0 0 0 0.40979 0.45423 0.4325 0.4325 0 0 0 0.45527-0.40773c0.0307-0.56375 0.12884-1.1167 0.27131-1.6547a3.1399 3.1399 0 0 0 1.4816 0.16329 3.1399 3.1399 0 0 0 1.1555-0.38964c-0.23612-0.18062-0.42478-0.41025-0.55345-0.66766a2.2906 2.2906 0 0 1-0.7121 0.21498 2.2906 2.2906 0 0 1-2.5678-1.9746 2.2906 2.2906 0 0 1 1.9746-2.5678 2.2906 2.2906 0 0 1 2.3993 1.3627c0.37997 0.0122 0.70446 0.0837 0.94671 0.16174a3.1399 3.1399 0 0 0-0.97255-1.6076c0.46932-0.46479 0.90354-0.81485 1.2299-1.0129a0.4325 0.4325 0 0 0 0.14469-0.59428 0.4325 0.4325 0 0 0-0.38137-0.20825z" fill="#8ac9e1"/>
  <text x="9.2282286" y="16.552805" fill="#007dad" font-family="sans-serif" font-size="3.175px" letter-spacing=".26458px" stroke-width=".26458" style="line-height:1" xml:space="preserve"><tspan x="9.3605194" y="16.552805" fill="#007dad" font-family="'Source Sans Pro'" font-size="3.175px" stroke-width=".26458" text-align="center" text-anchor="middle">ENCODING</tspan></text>
 </g>
</svg>
