<?xml version="1.0" encoding="UTF-8"?>
<svg width="70" height="70" version="1.1" viewBox="0 0 18.521 18.521" xmlns="http://www.w3.org/2000/svg" xmlns:cc="http://creativecommons.org/ns#" xmlns:dc="http://purl.org/dc/elements/1.1/" xmlns:rdf="http://www.w3.org/1999/02/22-rdf-syntax-ns#">
 <metadata>
  <rdf:RDF>
   <cc:Work rdf:about="">
    <dc:format>image/svg+xml</dc:format>
    <dc:type rdf:resource="http://purl.org/dc/dcmitype/StillImage"/>
    <dc:title/>
   </cc:Work>
  </rdf:RDF>
 </metadata>
 <g transform="translate(0 1.0395)">
  <path d="m11.311 2.853c-0.36015 0-0.72053 0.13659-0.99322 0.40927-0.54537 0.54538-0.54538 1.4406 0 1.9859 0.18292 0.18291 0.40653 0.29893 0.64183 0.35915-0.23528 0.0601-0.45882 0.17614-0.64183 0.35915-0.54538 0.54538-0.54538 1.4406 0 1.9859 0.54538 0.54538 1.4395 0.54396 1.9849-1e-3 0.33967-0.33967 0.4681-0.81452 0.38499-1.2562 0.54879 0.49633 1.405 0.48217 1.9337-0.0465 0.54538-0.54538 0.54396-1.4395-1e-3 -1.9849-0.27269-0.27269-0.63221-0.40876-0.99167-0.40876-0.35393 0-0.70765 0.13252-0.97875 0.39687 0.13946-0.47764 0.0286-1.0153-0.34571-1.3896-0.27269-0.27269-0.63308-0.40927-0.99323-0.40927zm-5.3e-4 0.69556c0.17946 2.92e-4 0.35871 0.07 0.49764 0.20877 0.27787 0.27787 0.27788 0.71691 0 0.99478-0.27787 0.27788-0.71792 0.27929-0.9958 1e-3 -0.27758-0.2779-0.27777-0.71854 0-0.99632 0.13894-0.13894 0.31869-0.20856 0.49816-0.20826zm2.3177 1.4015c0.17913 0 0.3582 0.0693 0.49713 0.20825 0.27788 0.27787 0.2793 0.71793 1e-3 0.99581-0.27787 0.27787-0.71949 0.27787-0.99736 0h1e-3c-0.27785-0.27787-0.27643-0.71794 1e-3 -0.99581 0.13893-0.13893 0.318-0.20825 0.49713-0.20825zm-1.3374 0.31057c-0.0628 0.21485-0.08 0.44034-0.0388 0.65939-0.17262-0.1562-0.3762-0.25794-0.59014-0.31264 0.22986-0.0587 0.4484-0.17092 0.6289-0.34675zm-0.9803 0.99219c0.17947 2.91e-4 0.35922 0.07 0.49816 0.20877 0.27786 0.27788 0.27788 0.71689 0 0.99477-0.27787 0.27787-0.71638 0.27786-0.99426 0h-5.3e-4c-0.27786-0.27788-0.27929-0.71793-1e-3 -0.9958 0.13894-0.13894 0.31818-0.20804 0.49765-0.20774z" color="#000000" color-rendering="auto" dominant-baseline="auto" fill="#8ac9e1" image-rendering="auto" shape-rendering="auto" solid-color="#000000" stop-color="#000000" style="font-feature-settings:normal;font-variant-alternates:normal;font-variant-caps:normal;font-variant-east-asian:normal;font-variant-ligatures:normal;font-variant-numeric:normal;font-variant-position:normal;font-variation-settings:normal;inline-size:0;isolation:auto;mix-blend-mode:normal;shape-margin:0;shape-padding:0;text-decoration-color:#000000;text-decoration-line:none;text-decoration-style:solid;text-indent:0;text-orientation:mixed;text-transform:none;white-space:normal"/>
  <path d="m4.844 2.9749c-0.20864 3e-3 -0.41519 0.0529-0.60151 0.14676-0.67264 0.33966-0.9452 1.1714-0.60513 1.8438 0.18219 0.36057 0.50694 0.60131 0.87178 0.69918-0.0917 0.0242-0.18133 0.0566-0.26665 0.0997-0.67218 0.33965-0.94467 1.1711-0.60513 1.8433 0.33965 0.67217 1.1716 0.94724 1.8438 0.60771 0.35969-0.18175 0.5998-0.50595 0.69814-0.86971 0.0239 0.089 0.0572 0.17678 0.10026 0.262 0.33965 0.67217 1.1695 0.94724 1.8417 0.60771 0.67264-0.33966 0.9478-1.1735 0.60772-1.8459-0.17662-0.34921-0.49191-0.60014-0.85835-0.70177 0.0852-0.0236 0.16891-0.0559 0.25063-0.0971 0.67264-0.33966 0.94779-1.1714 0.60772-1.8438-0.23607-0.46676-0.71929-0.75869-1.2423-0.7519-0.20892 3e-3 -0.41495 0.0527-0.60152 0.14676-0.35961 0.1816-0.60015 0.50483-0.69866 0.86817-0.0239-0.0893-0.057-0.17751-0.10025-0.26303-0.2362-0.46702-0.719-0.759-1.2423-0.7519zm1.3353 1.7281c0.0239 0.0892 0.0571 0.17714 0.10026 0.26252 0.18238 0.36094 0.50752 0.60152 0.87229 0.69918-0.0918 0.0242-0.18143 0.0568-0.26665 0.0997-0.35994 0.18175-0.60032 0.50546-0.69866 0.86919-0.0238-0.089-0.0572-0.1768-0.10025-0.26199-0.17637-0.3493-0.49175-0.6011-0.85835-0.70332 0.086-0.0236 0.17084-0.0561 0.25322-0.0977 0.35944-0.18151 0.59954-0.50452 0.69814-0.86765z" color="#000000" color-rendering="auto" dominant-baseline="auto" fill="#007dad" image-rendering="auto" shape-rendering="auto" solid-color="#000000" stop-color="#000000" style="font-feature-settings:normal;font-variant-alternates:normal;font-variant-caps:normal;font-variant-east-asian:normal;font-variant-ligatures:normal;font-variant-numeric:normal;font-variant-position:normal;font-variation-settings:normal;inline-size:0;isolation:auto;mix-blend-mode:normal;shape-margin:0;shape-padding:0;text-decoration-color:#000000;text-decoration-line:none;text-decoration-style:solid;text-indent:0;text-orientation:mixed;text-transform:none;white-space:normal"/>
  <text x="9.2409449" y="15.633972" fill="#007dad" font-family="sans-serif" font-size="3.175px" letter-spacing=".26458px" stroke-width=".26458" style="line-height:1" xml:space="preserve"><tspan x="9.3732367" y="15.633972" fill="#007dad" font-family="'Source Sans Pro'" font-size="3.175px" stroke-width=".26458" text-align="center" text-anchor="middle">CLUSTERS</tspan></text>
 </g>
</svg>
