<?xml version="1.0" encoding="UTF-8"?>
<svg width="70" height="70" version="1.1" viewBox="0 0 18.521 18.521" xmlns="http://www.w3.org/2000/svg" xmlns:cc="http://creativecommons.org/ns#" xmlns:dc="http://purl.org/dc/elements/1.1/" xmlns:rdf="http://www.w3.org/1999/02/22-rdf-syntax-ns#">
 <metadata>
  <rdf:RDF>
   <cc:Work rdf:about="">
    <dc:format>image/svg+xml</dc:format>
    <dc:type rdf:resource="http://purl.org/dc/dcmitype/StillImage"/>
    <dc:title/>
   </cc:Work>
  </rdf:RDF>
 </metadata>
 <g transform="translate(0 .30365)">
  <path d="m9.2233 2.9119a3.3878 3.3878 0 0 0-4.628 1.2401 3.3878 3.3878 0 0 0 1.2401 4.628 3.3878 3.3878 0 0 0 4.3189-0.79256c-9e-3 0.18962 0.0829 0.37726 0.25926 0.47906l3.518 2.0311c0.2511 0.14498 0.57013 0.0595 0.71509-0.1916l0.30412-0.52675c0.14496-0.25108 0.0592-0.56967-0.19187-0.71464l-3.518-2.0311c-0.17661-0.10197-0.3852-0.088-0.54477 0.0155a3.3878 3.3878 0 0 0-1.4728-4.137zm-0.42226 0.7014a2.5693 2.5693 0 0 1 0.013 7e-3 2.5693 2.5693 0 0 1 0.94 3.5096 2.5693 2.5693 0 0 1-3.5094 0.9407 2.5693 2.5693 0 0 1-0.94045-3.5098 2.5693 2.5693 0 0 1 3.4968-0.94794z" fill="#007dad"/>
  <path d="m12.073 2.1171a0.78171 0.78171 0 0 0-0.77669 0.74982c-0.2833 0.13369-0.57482 0.28831-0.86972 0.45476a4.0426 4.0426 0 0 1 0.42375 0.59789c0.25757-0.1444 0.51185-0.27948 0.75758-0.39584a0.78171 0.78171 0 0 0 0.46922 0.15658 0.78171 0.78171 0 0 0 0.78134-0.78186 0.78171 0.78171 0 0 0-0.78134-0.78135 0.78171 0.78171 0 0 0-4e-3 0zm-3.2551 2.065c-0.19039 0.14709-0.38038 0.29735-0.57 0.45217-6e-3 -3e-3 -0.0113-7e-3 -0.017-0.0104-2e-3 -1e-3 -5e-3 -3e-3 -7e-3 -4e-3h-5.3e-4c-0.67254-0.38287-1.5281-0.1513-1.9151 0.51883-0.22979 0.39803-0.2509 0.88328-0.0563 1.2997-0.17085 0.17063-0.34006 0.34472-0.50798 0.52142 0.17048 0.30407 0.43012 0.53009 0.72502 0.70176 0.16843-0.17709 0.33804-0.35184 0.50953-0.52244 0.65423 0.27681 1.4122 0.0225 1.7673-0.59273 0.19543-0.33864 0.24097-0.743 0.12609-1.1167 0.19016-0.15571 0.38144-0.3066 0.57206-0.45424-0.10794-0.29048-0.35884-0.60495-0.6258-0.79375zm-4.0933 4.2979c-0.1206 0.16953-0.23911 0.341-0.35398 0.51573a0.78171 0.78171 0 0 0-0.0894-5e-3 0.78171 0.78171 0 0 0-0.78186 0.78187 0.78171 0.78171 0 0 0 0.78186 0.78186 0.78171 0.78171 0 0 0 0.78187-0.78186 0.78171 0.78171 0 0 0-0.091-0.36536c0.0995-0.15109 0.20215-0.29976 0.30645-0.447a4.0426 4.0426 0 0 1-0.55398-0.48008z" fill="#8ac9e1"/>
  <text x="9.1873112" y="16.369867" fill="#007dad" font-family="sans-serif" font-size="3.175px" letter-spacing=".26458px" stroke-width=".26458" style="line-height:1" xml:space="preserve"><tspan x="9.319603" y="16.369867" fill="#007dad" font-family="'Source Sans Pro'" font-size="3.175px" stroke-width=".26458" text-align="center" text-anchor="middle">DETAILS</tspan></text>
 </g>
</svg>
