<?xml version="1.0" encoding="UTF-8" standalone="no"?>
<svg
   xmlns:dc="http://purl.org/dc/elements/1.1/"
   xmlns:cc="http://creativecommons.org/ns#"
   xmlns:rdf="http://www.w3.org/1999/02/22-rdf-syntax-ns#"
   xmlns:svg="http://www.w3.org/2000/svg"
   xmlns="http://www.w3.org/2000/svg"
   xmlns:sodipodi="http://sodipodi.sourceforge.net/DTD/sodipodi-0.dtd"
   xmlns:inkscape="http://www.inkscape.org/namespaces/inkscape"
   sodipodi:docname="pse_icons_clusters.svg"
   inkscape:version="1.0 (4035a4fb49, 2020-05-01)"
   id="svg2274"
   version="1.1"
   viewBox="0 0 18.520833 18.520834"
   height="70"
   width="70">
  <defs
     id="defs2268" />
  <sodipodi:namedview
     inkscape:window-maximized="0"
     inkscape:window-y="0"
     inkscape:window-x="2050"
     inkscape:window-height="1040"
     inkscape:window-width="1256"
     inkscape:snap-page="true"
     units="px"
     showgrid="false"
     inkscape:document-rotation="0"
     inkscape:current-layer="layer1"
     inkscape:document-units="mm"
     inkscape:cy="42.137527"
     inkscape:cx="10.045182"
     inkscape:zoom="3.6560919"
     inkscape:pageshadow="2"
     inkscape:pageopacity="0.0"
     borderopacity="1.0"
     bordercolor="#666666"
     pagecolor="#ffffff"
     id="base" />
  <metadata
     id="metadata2271">
    <rdf:RDF>
      <cc:Work
         rdf:about="">
        <dc:format>image/svg+xml</dc:format>
        <dc:type
           rdf:resource="http://purl.org/dc/dcmitype/StillImage" />
        <dc:title></dc:title>
      </cc:Work>
    </rdf:RDF>
  </metadata>
  <g
     id="layer1"
     inkscape:groupmode="layer"
     inkscape:label="Ebene 1">
    <g
       transform="translate(0,1.0395443)"
       id="g4713">
      <path
         id="path937"
         style="color:#000000;font-style:normal;font-variant:normal;font-weight:normal;font-stretch:normal;font-size:medium;line-height:normal;font-family:sans-serif;font-variant-ligatures:normal;font-variant-position:normal;font-variant-caps:normal;font-variant-numeric:normal;font-variant-alternates:normal;font-variant-east-asian:normal;font-feature-settings:normal;font-variation-settings:normal;text-indent:0;text-align:start;text-decoration:none;text-decoration-line:none;text-decoration-style:solid;text-decoration-color:#000000;letter-spacing:normal;word-spacing:normal;text-transform:none;writing-mode:lr-tb;direction:ltr;text-orientation:mixed;dominant-baseline:auto;baseline-shift:baseline;text-anchor:start;white-space:normal;shape-padding:0;shape-margin:0;inline-size:0;clip-rule:nonzero;display:inline;overflow:visible;visibility:visible;isolation:auto;mix-blend-mode:normal;color-interpolation:sRGB;color-interpolation-filters:linearRGB;solid-color:#000000;solid-opacity:1;vector-effect:none;fill:#8ac9e1;fill-opacity:1;fill-rule:nonzero;stroke:none;stroke-width:0.7;stroke-linecap:round;stroke-linejoin:round;stroke-miterlimit:4;stroke-dasharray:none;stroke-dashoffset:0;stroke-opacity:1;color-rendering:auto;image-rendering:auto;shape-rendering:auto;text-rendering:auto;enable-background:accumulate;stop-color:#000000"
         d="m 11.31084,2.852995 c -0.36015,0 -0.72053,0.13659 -0.99322,0.40927 -0.54537,0.54538 -0.54538,1.44055 0,1.98593 0.18292,0.18291 0.40653,0.298931 0.64183,0.359151 -0.23528,0.0601 -0.45882,0.17614 -0.64183,0.359149 -0.54538,0.545381 -0.54538,1.440551 0,1.98593 0.54538,0.54538 1.43952,0.54396 1.9849,-10e-4 0.33967,-0.33967 0.4681,-0.81452 0.38499,-1.256249 0.54879,0.49633 1.40504,0.48217 1.93373,-0.0465 0.54538,-0.545381 0.54396,-1.439521 -10e-4,-1.984891 -0.27269,-0.27269 -0.63221,-0.40876 -0.99167,-0.40876 -0.35393,0 -0.70765,0.13252 -0.97875,0.396871 0.13946,-0.477641 0.0286,-1.015281 -0.34571,-1.389571 -0.27269,-0.27269 -0.63308,-0.40927 -0.99323,-0.40927 z m -5.3e-4,0.69556 c 0.17946,2.92e-4 0.35871,0.07 0.49764,0.20877 0.27787,0.27787 0.27788,0.71691 0,0.99478 -0.27787,0.27788 -0.71792,0.27929 -0.9958,10e-4 -0.27758,-0.2779 -0.27777,-0.71854 0,-0.99632 0.13894,-0.13894 0.31869,-0.20856 0.49816,-0.20826 z m 2.31768,1.40147 c 0.17913,0 0.3582,0.0693 0.49713,0.20825 0.27788,0.27787 0.2793,0.717931 10e-4,0.995811 -0.27787,0.277869 -0.71949,0.277869 -0.99736,0 h 10e-4 c -0.27785,-0.277871 -0.27643,-0.717941 0.001,-0.995811 0.13893,-0.13893 0.318,-0.20825 0.49713,-0.20825 z m -1.33738,0.31057 c -0.0628,0.21485 -0.08,0.440341 -0.0388,0.65939 -0.17262,-0.1562 -0.3762,-0.25794 -0.59014,-0.312639 0.22986,-0.0587 0.4484,-0.170921 0.6289,-0.346751 z m -0.9803,0.99219 c 0.17947,2.91e-4 0.35922,0.07 0.49816,0.20877 0.27786,0.27788 0.27788,0.716891 0,0.994771 -0.27787,0.277869 -0.71638,0.277859 -0.99426,0 h -5.3e-4 c -0.27786,-0.27788 -0.27929,-0.71793 -10e-4,-0.995801 0.13894,-0.138939 0.31818,-0.20804 0.49765,-0.20774 z" />
      <path
         id="path949"
         style="color:#000000;font-style:normal;font-variant:normal;font-weight:normal;font-stretch:normal;font-size:medium;line-height:normal;font-family:sans-serif;font-variant-ligatures:normal;font-variant-position:normal;font-variant-caps:normal;font-variant-numeric:normal;font-variant-alternates:normal;font-variant-east-asian:normal;font-feature-settings:normal;font-variation-settings:normal;text-indent:0;text-align:start;text-decoration:none;text-decoration-line:none;text-decoration-style:solid;text-decoration-color:#000000;letter-spacing:normal;word-spacing:normal;text-transform:none;writing-mode:lr-tb;direction:ltr;text-orientation:mixed;dominant-baseline:auto;baseline-shift:baseline;text-anchor:start;white-space:normal;shape-padding:0;shape-margin:0;inline-size:0;clip-rule:nonzero;display:inline;overflow:visible;visibility:visible;isolation:auto;mix-blend-mode:normal;color-interpolation:sRGB;color-interpolation-filters:linearRGB;solid-color:#000000;solid-opacity:1;vector-effect:none;fill:#007dad;fill-opacity:1;fill-rule:nonzero;stroke:none;stroke-width:0.790771;stroke-linecap:round;stroke-linejoin:round;stroke-miterlimit:4;stroke-dasharray:none;stroke-dashoffset:0;stroke-opacity:1;color-rendering:auto;image-rendering:auto;shape-rendering:auto;text-rendering:auto;enable-background:accumulate;stop-color:#000000"
         d="m 4.84405,2.974945 c -0.20864,0.003 -0.41519,0.0529 -0.60151,0.14676 -0.67264,0.33966 -0.9452,1.17139 -0.60513,1.84382 0.18219,0.36057 0.50694,0.60131 0.87178,0.699181 -0.0917,0.0242 -0.18133,0.0566 -0.26665,0.0997 -0.67218,0.339649 -0.94467,1.171059 -0.60513,1.8433 0.33965,0.67217 1.17158,0.947239 1.84382,0.607709 0.35969,-0.18175 0.5998,-0.50595 0.69814,-0.86971 0.0239,0.089 0.0572,0.17678 0.10026,0.262001 0.33965,0.67217 1.16951,0.947239 1.84174,0.607709 C 8.79401,7.875755 9.06917,7.041956 8.72909,6.369535 8.55247,6.020325 8.23718,5.769395 7.87074,5.667766 7.95594,5.644166 8.03965,5.611866 8.12137,5.570666 8.79401,5.231005 9.06916,4.399275 8.72909,3.726855 8.49302,3.260095 8.0098,2.968165 7.48679,2.974955 c -0.20892,0.003 -0.41495,0.0527 -0.60152,0.14676 -0.35961,0.1816 -0.60015,0.50483 -0.69866,0.86817 -0.0239,-0.0893 -0.057,-0.17751 -0.10025,-0.26303 -0.2362,-0.46702 -0.719,-0.759 -1.24231,-0.7519 z m 1.33532,1.72806 c 0.0239,0.0892 0.0571,0.17714 0.10026,0.26252 0.18238,0.36094 0.50752,0.601521 0.87229,0.699181 -0.0918,0.0242 -0.18143,0.0568 -0.26665,0.0997 -0.35994,0.18175 -0.60032,0.50546 -0.69866,0.86919 -0.0238,-0.089 -0.0572,-0.1768 -0.10025,-0.26199 -0.17637,-0.3493 -0.49175,-0.6011 -0.85835,-0.70332 0.086,-0.0236 0.17084,-0.0561 0.25322,-0.0977 0.35944,-0.181511 0.59954,-0.50452 0.69814,-0.867651 z" />
      <text
         xml:space="preserve"
         style="font-size:3.175px;line-height:1;font-family:sans-serif;letter-spacing:0.264583px;fill:#007dad;fill-opacity:1;stroke-width:0.264583"
         x="9.2409449"
         y="15.633972"
         id="text977"><tspan
           sodipodi:role="line"
           x="9.3732367"
           y="15.633972"
           style="font-style:normal;font-variant:normal;font-weight:normal;font-stretch:normal;font-size:3.175px;font-family:'Source Sans Pro';-inkscape-font-specification:'Source Sans Pro';text-align:center;text-anchor:middle;fill:#007dad;fill-opacity:1;stroke-width:0.264583"
           id="tspan975">CLUSTERS</tspan></text>
    </g>
  </g>
</svg>
