<?xml version="1.0" encoding="UTF-8" standalone="no"?>
<svg
   xmlns:dc="http://purl.org/dc/elements/1.1/"
   xmlns:cc="http://creativecommons.org/ns#"
   xmlns:rdf="http://www.w3.org/1999/02/22-rdf-syntax-ns#"
   xmlns:svg="http://www.w3.org/2000/svg"
   xmlns="http://www.w3.org/2000/svg"
   xmlns:sodipodi="http://sodipodi.sourceforge.net/DTD/sodipodi-0.dtd"
   xmlns:inkscape="http://www.inkscape.org/namespaces/inkscape"
   width="70"
   height="70"
   viewBox="0 0 18.520833 18.520834"
   version="1.1"
   id="svg3412"
   inkscape:version="1.0 (4035a4fb49, 2020-05-01)"
   sodipodi:docname="pse-icon-details.svg">
  <defs
     id="defs3406" />
  <sodipodi:namedview
     inkscape:snap-text-baseline="true"
     inkscape:snap-page="true"
     id="base"
     pagecolor="#ffffff"
     bordercolor="#666666"
     borderopacity="1.0"
     inkscape:pageopacity="0.0"
     inkscape:pageshadow="2"
     inkscape:zoom="7.5063938"
     inkscape:cx="54.767191"
     inkscape:cy="36.8446"
     inkscape:document-units="mm"
     inkscape:current-layer="layer1"
     inkscape:document-rotation="0"
     showgrid="false"
     units="px"
     inkscape:window-width="1920"
     inkscape:window-height="1017"
     inkscape:window-x="1912"
     inkscape:window-y="-8"
     inkscape:window-maximized="1" />
  <metadata
     id="metadata3409">
    <rdf:RDF>
      <cc:Work
         rdf:about="">
        <dc:format>image/svg+xml</dc:format>
        <dc:type
           rdf:resource="http://purl.org/dc/dcmitype/StillImage" />
        <dc:title />
      </cc:Work>
    </rdf:RDF>
  </metadata>
  <g
     inkscape:label="Ebene 1"
     inkscape:groupmode="layer"
     id="layer1">
    <g
       transform="translate(0,0.30364919)"
       id="g844">
      <path
         d="M 9.22326,2.91191 A 3.3877988,3.3877988 0 0 0 4.59529,4.15197 3.3877988,3.3877988 0 0 0 5.83535,8.77994 3.3877988,3.3877988 0 0 0 10.15423,7.98738 c -0.009,0.18962 0.0829,0.37726 0.25926,0.47906 l 3.51804,2.03114 c 0.2511,0.14498 0.57013,0.0595 0.71509,-0.1916 L 14.95074,9.77923 C 15.0957,9.52815 15.00994,9.20956 14.75887,9.06459 L 11.24083,7.03345 c -0.17661,-0.10197 -0.3852,-0.088 -0.54477,0.0155 a 3.3877988,3.3877988 0 0 0 -1.4728,-4.137 z M 8.801,3.61331 a 2.5692859,2.5692859 0 0 1 0.013,0.007 2.5692859,2.5692859 0 0 1 0.94,3.50955 A 2.5692859,2.5692859 0 0 1 6.24465,8.07056 2.5692859,2.5692859 0 0 1 5.3042,4.56076 2.5692859,2.5692859 0 0 1 8.80102,3.61282 Z"
         style="fill:#007dad;fill-opacity:1;stroke:none;stroke-width:0.134367;stroke-linecap:round;stroke-linejoin:round;stroke-miterlimit:4;stroke-dasharray:none;stroke-opacity:1"
         id="path955" />
      <path
         id="path957"
         style="fill:#8ac9e1;fill-opacity:1;stroke:none;stroke-width:0.106237;stroke-linecap:round;stroke-linejoin:round;stroke-miterlimit:4;stroke-dasharray:none;stroke-opacity:1"
         d="m 12.07323,2.11711 a 0.78171281,0.78171281 0 0 0 -0.77669,0.74982 c -0.2833,0.13369 -0.57482,0.28831 -0.86972,0.45476 a 4.0426211,4.0426211 0 0 1 0.42375,0.59789 c 0.25757,-0.1444 0.51185,-0.27948 0.75758,-0.39584 a 0.78171281,0.78171281 0 0 0 0.46922,0.15658 0.78171281,0.78171281 0 0 0 0.78134,-0.78186 0.78171281,0.78171281 0 0 0 -0.78134,-0.78135 0.78171281,0.78171281 0 0 0 -0.004,0 z M 8.81814,4.1821 c -0.19039,0.14709 -0.38038,0.29735 -0.57,0.45217 -0.006,-0.003 -0.0113,-0.007 -0.017,-0.0104 -0.002,-0.001 -0.005,-0.003 -0.007,-0.004 H 8.22361 C 7.55107,4.237 6.69555,4.46857 6.30848,5.1387 6.07869,5.53673 6.05758,6.02198 6.25218,6.43836 6.08133,6.60899 5.91212,6.78308 5.7442,6.95978 5.91468,7.26385 6.17432,7.48987 6.46922,7.66154 6.63765,7.48445 6.80726,7.3097 6.97875,7.1391 7.63298,7.41591 8.39091,7.1616 8.74608,6.54637 8.94151,6.20773 8.98705,5.80337 8.87217,5.42964 9.06233,5.27393 9.25361,5.12304 9.44423,4.9754 9.33629,4.68492 9.08539,4.37045 8.81843,4.18165 Z M 4.72484,8.48003 C 4.60424,8.64956 4.48573,8.82103 4.37086,8.99576 A 0.78171281,0.78171281 0 0 0 4.28146,8.99076 0.78171281,0.78171281 0 0 0 3.4996,9.77263 0.78171281,0.78171281 0 0 0 4.28146,10.55449 0.78171281,0.78171281 0 0 0 5.06333,9.77263 0.78171281,0.78171281 0 0 0 4.97233,9.40727 C 5.07183,9.25618 5.17448,9.10751 5.27878,8.96027 A 4.0426211,4.0426211 0 0 1 4.7248,8.48019 Z" />
      <text
         id="text985"
         y="16.369867"
         x="9.1873112"
         style="font-size:3.175px;line-height:1;font-family:sans-serif;letter-spacing:0.264583px;fill:#007dad;fill-opacity:1;stroke-width:0.264583"
         xml:space="preserve"><tspan
           id="tspan983"
           style="font-style:normal;font-variant:normal;font-weight:normal;font-stretch:normal;font-size:3.175px;font-family:'Source Sans Pro';-inkscape-font-specification:'Source Sans Pro';text-align:center;text-anchor:middle;fill:#007dad;fill-opacity:1;stroke-width:0.264583"
           y="16.369867"
           x="9.319603"
           sodipodi:role="line">DETAILS</tspan></text>
    </g>
  </g>
</svg>
