<?xml version="1.0" encoding="UTF-8"?>
<svg width="70" height="70" version="1.1" viewBox="0 0 18.521 18.521" xmlns="http://www.w3.org/2000/svg" xmlns:cc="http://creativecommons.org/ns#" xmlns:dc="http://purl.org/dc/elements/1.1/" xmlns:rdf="http://www.w3.org/1999/02/22-rdf-syntax-ns#">
 <metadata>
  <rdf:RDF>
   <cc:Work rdf:about="">
    <dc:format>image/svg+xml</dc:format>
    <dc:type rdf:resource="http://purl.org/dc/dcmitype/StillImage"/>
    <dc:title/>
   </cc:Work>
  </rdf:RDF>
 </metadata>
 <path d="m9.2233 3.2156a3.3878 3.3878 0 0 0-4.628 1.2401 3.3878 3.3878 0 0 0 1.2401 4.628 3.3878 3.3878 0 0 0 4.3189-0.79256c-9e-3 0.18962 0.0829 0.37726 0.25926 0.47906l3.518 2.0311c0.2511 0.14498 0.57013 0.0595 0.71509-0.1916l0.30412-0.52675c0.14496-0.25108 0.0592-0.56967-0.19187-0.71464l-3.518-2.0311c-0.17661-0.10197-0.3852-0.088-0.54477 0.0155a3.3878 3.3878 0 0 0-1.4728-4.137zm-0.42226 0.7014a2.5693 2.5693 0 0 1 0.013 7e-3 2.5693 2.5693 0 0 1 0.94 3.5096 2.5693 2.5693 0 0 1-3.5094 0.9407 2.5693 2.5693 0 0 1-0.94045-3.5098 2.5693 2.5693 0 0 1 3.4968-0.94794z" fill="#007dad"/>
 <path d="m12.073 2.4208a0.78171 0.78171 0 0 0-0.77669 0.74982c-0.2833 0.13369-0.57482 0.28831-0.86972 0.45476a4.0426 4.0426 0 0 1 0.42375 0.59789c0.25757-0.1444 0.51185-0.27948 0.75758-0.39584a0.78171 0.78171 0 0 0 0.46922 0.15658 0.78171 0.78171 0 0 0 0.78134-0.78186 0.78171 0.78171 0 0 0-0.78134-0.78135 0.78171 0.78171 0 0 0-4e-3 0zm-3.2551 2.065c-0.19039 0.14709-0.38038 0.29735-0.57 0.45217-6e-3 -3e-3 -0.0113-7e-3 -0.017-0.0104-2e-3 -1e-3 -5e-3 -3e-3 -7e-3 -4e-3h-5.3e-4c-0.67254-0.38287-1.5281-0.1513-1.9151 0.51883-0.22979 0.39803-0.2509 0.88328-0.0563 1.2997-0.17085 0.17063-0.34006 0.34472-0.50798 0.52142 0.17048 0.30407 0.43012 0.53009 0.72502 0.70176 0.16843-0.17709 0.33804-0.35184 0.50953-0.52244 0.65423 0.27681 1.4122 0.0225 1.7673-0.59273 0.19543-0.33864 0.24097-0.743 0.12609-1.1167 0.19016-0.15571 0.38144-0.3066 0.57206-0.45424-0.10794-0.29048-0.35884-0.60495-0.6258-0.79375zm-4.0933 4.2979c-0.1206 0.16953-0.23911 0.341-0.35398 0.51573a0.78171 0.78171 0 0 0-0.0894-5e-3 0.78171 0.78171 0 0 0-0.78186 0.78187 0.78171 0.78171 0 0 0 0.78186 0.78186 0.78171 0.78171 0 0 0 0.78187-0.78186 0.78171 0.78171 0 0 0-0.091-0.36536c0.0995-0.15109 0.20215-0.29976 0.30645-0.447a4.0426 4.0426 0 0 1-0.55398-0.48008z" fill="#8ac9e1"/>
 <g fill="#007dad" stroke-width=".26458" aria-label="DETAILS">
  <path d="m3.3422 16.674h0.5334c0.62865 0 0.97155-0.38735 0.97155-1.0509 0-0.6604-0.3429-1.0319-0.98425-1.0319h-0.5207zm0.26352-0.2159v-1.651h0.23812c0.48578 0 0.73025 0.2921 0.73025 0.81598 0 0.52705-0.24448 0.83502-0.73025 0.83502z"/>
  <path d="m5.5601 16.674h1.2319v-0.22542h-0.96837v-0.75565h0.79058v-0.22542h-0.79058v-0.65405h0.93662v-0.22225h-1.2002z"/>
  <path d="m7.9308 16.674h0.2667v-1.8606h0.62865v-0.22225h-1.524v0.22225h0.62865z"/>
  <path d="m9.6975 15.508c0.0762-0.23178 0.14288-0.46038 0.20638-0.70168h0.0127c0.066675 0.2413 0.13335 0.4699 0.20955 0.70168l0.09842 0.3175h-0.62547zm-0.635 1.1652h0.26988l0.20002-0.635h0.75883l0.19685 0.635h0.28258l-0.70485-2.0828h-0.29845z"/>
  <path d="m11.333 16.674h0.26352v-2.0828h-0.26352z"/>
  <path d="m12.435 16.674h1.1748v-0.22542h-0.91122v-1.8574h-0.26352z"/>
  <path d="m14.753 16.712c0.43815 0 0.70802-0.26352 0.70802-0.59372 0-0.30798-0.18732-0.45085-0.42862-0.55562l-0.29528-0.127c-0.1651-0.06985-0.34608-0.14605-0.34608-0.34608 0-0.18732 0.15558-0.3048 0.38735-0.3048 0.19368 0 0.34608 0.0762 0.47308 0.19685l0.14288-0.17145c-0.14922-0.1524-0.3683-0.25718-0.61595-0.25718-0.37782 0-0.65405 0.23495-0.65405 0.55245 0 0.3048 0.22542 0.45402 0.42228 0.53658l0.29845 0.13018c0.19685 0.0889 0.34608 0.15558 0.34608 0.3683 0 0.2032-0.16192 0.33972-0.43498 0.33972-0.2159 0-0.42545-0.10478-0.57468-0.26035l-0.15875 0.18415c0.18098 0.18732 0.43815 0.30798 0.73025 0.30798z"/>
 </g>
</svg>
