<?xml version="1.0" encoding="UTF-8"?>
<svg width="70" height="70" version="1.1" viewBox="0 0 18.521 18.521" xmlns="http://www.w3.org/2000/svg" xmlns:cc="http://creativecommons.org/ns#" xmlns:dc="http://purl.org/dc/elements/1.1/" xmlns:rdf="http://www.w3.org/1999/02/22-rdf-syntax-ns#">
 <metadata>
  <rdf:RDF>
   <cc:Work rdf:about="">
    <dc:format>image/svg+xml</dc:format>
    <dc:type rdf:resource="http://purl.org/dc/dcmitype/StillImage"/>
    <dc:title/>
   </cc:Work>
  </rdf:RDF>
 </metadata>
 <path d="m6.5268 1.9056a0.36404 0.36404 0 0 0-0.17002 0.0491l-2.2087 1.2754a0.36404 0.36404 0 0 0-5.2e-4 5.29e-4 0.364 0.364 0 0 0-0.016 0.0103 0.36404 0.36404 0 0 0-6e-3 4e-3 0.364 0.364 0 0 0-2e-3 2e-3 0.36404 0.36404 0 0 0-0.0181 0.0134 0.364 0.364 0 0 0-0.0134 0.0114 0.36404 0.36404 0 0 0-6e-3 5e-3 0.364 0.364 0 0 0-3e-3 3e-3 0.36404 0.36404 0 0 0-0.0155 0.0155 0.364 0.364 0 0 0-0.0155 0.0171 0.36404 0.36404 0 0 0-3e-3 3e-3 0.364 0.364 0 0 0-2e-3 2e-3 0.36404 0.36404 0 0 0-0.0129 0.0181 0.364 0.364 0 0 0-0.0109 0.0165 0.36404 0.36404 0 0 0-5e-3 8e-3 0.364 0.364 0 0 0-2e-3 4e-3 0.36404 0.36404 0 0 0-9e-3 0.0165 0.364 0.364 0 0 0-8e-3 0.016 0.36404 0.36404 0 0 0-6e-3 0.0145 0.364 0.364 0 0 0 0 5.29e-4 0.36404 0.36404 0 0 0-8e-3 0.0222 0.364 0.364 0 0 0-2e-3 6e-3 0.36404 0.36404 0 0 0-6e-3 0.0212 0.36404 0.36404 0 0 0-9e-3 0.0517 0.36404 0.36404 0 0 0-2e-3 0.0258 0.36404 0.36404 0 0 0-5.3e-4 7e-3v2.5508a0.36404 0.36404 0 0 0 0.1819 0.31471l2.2086 1.2754a0.36404 0.36404 0 0 0 5e-3 3e-3 0.364 0.364 0 0 0 8e-3 4e-3 0.36404 0.36404 0 0 0 0.0667 0.0274 0.364 0.364 0 0 0 5e-3 2e-3 0.36404 0.36404 0 0 0 0.0165 5e-3 0.364 0.364 0 0 0 0.016 3e-3 0.36404 0.36404 0 0 0 5e-3 1e-3 0.364 0.364 0 0 0 0.0594 5e-3 0.364 0.364 0 0 0 0.0444-3e-3 0.36404 0.36404 0 0 0 8e-3 -1e-3 0.364 0.364 0 0 0 0.0181-3e-3 0.36404 0.36404 0 0 0 4e-3 -1e-3 0.364 0.364 0 0 0 0.0217-5e-3 0.36404 0.36404 0 0 0 0.0165-5e-3 0.364 0.364 0 0 0 8e-3 -3e-3 0.36404 0.36404 0 0 0 7e-3 -3e-3 0.364 0.364 0 0 0 0.017-7e-3 0.36404 0.36404 0 0 0 7e-3 -3e-3 0.364 0.364 0 0 0 0.016-8e-3 0.36404 0.36404 0 0 0 7e-3 -4e-3 0.364 0.364 0 0 0 6e-3 -4e-3l2.2092-1.2754a0.36404 0.36404 0 0 0 0.1819-0.31471v-2.5508a0.36404 0.36404 0 0 0-3e-3 -0.0372 0.36404 0.36404 0 0 0-4e-3 -0.0258 0.364 0.364 0 0 0-3e-3 -0.0145 0.36404 0.36404 0 0 0-3e-3 -0.0114 0.364 0.364 0 0 0-5.3e-4 -4e-3 0.36404 0.36404 0 0 0-5e-3 -0.017 0.36404 0.36404 0 0 0-1e-3 -4e-3 0.364 0.364 0 0 0-5e-3 -0.0139 0.36404 0.36404 0 0 0-4e-3 -0.01 0.364 0.364 0 0 0-2e-3 -3e-3 0.36404 0.36404 0 0 0-8e-3 -0.0186 0.36404 0.36404 0 0 0-1e-3 -2e-3 0.364 0.364 0 0 0-7e-3 -0.0129 0.36404 0.36404 0 0 0-4e-3 -7e-3 0.364 0.364 0 0 0-0.01-0.016 0.36404 0.36404 0 0 0-4e-3 -6e-3 0.364 0.364 0 0 0-0.0109-0.015 0.364 0.364 0 0 0-0.0165-0.0202 0.364 0.364 0 0 0-0.015-0.0165 0.364 0.364 0 0 0-3e-3 -3e-3 0.36404 0.36404 0 0 0-5e-3 -5e-3 0.364 0.364 0 0 0-0.0139-0.0124 0.364 0.364 0 0 0-0.0181-0.0145 0.364 0.364 0 0 0-3e-3 -2e-3 0.36404 0.36404 0 0 0-6e-3 -4e-3 0.364 0.364 0 0 0-0.0155-0.0103 0.36404 0.36404 0 0 0-6e-3 -4e-3 0.364 0.364 0 0 0-7e-3 -4e-3l-5e-3 -3e-3a0.364 0.364 0 0 0-0.0114-6e-3l-2.1926-1.2661a0.36404 0.36404 0 0 0-0.18965-0.0491zm0.0119 0.78341 1.48 0.85628-1.48 0.85473-1.4805-0.85473zm-1.8438 1.4857 1.4805 0.85473v1.7094l-1.4805-0.85473zm3.6876 0v1.7094l-1.4805 0.85473v-1.7094zm2.2128 0.0284c-0.20724 0-0.37414 0.16637-0.37414 0.37362 0 0.20724 0.1669 0.37339 0.37414 0.37414h3.2117v4.0421h-2.5249l0.42529-0.4253c0.1465-0.14659 0.14659-0.38208 0-0.52865-0.14654-0.14655-0.38261-0.14706-0.52916-5.29e-4l-1.063 1.064c-0.0367 0.0367-0.0649 0.0791-0.0832 0.12402-0.0183 0.0451-0.0266 0.0929-0.0269 0.14056-1.9e-4 0.0239 2e-3 0.0478 6e-3 0.0713v5.29e-4c4e-3 0.0234 0.0121 0.0463 0.0212 0.0687 9e-3 0.0227 0.0203 0.0442 0.0341 0.0651v5.29e-4c0.0137 0.0207 0.0304 0.0402 0.0486 0.0584v5.29e-4l1.0635 1.0635c0.14654 0.14655 0.38262 0.14655 0.52917 0s0.14654-0.38265 0-0.52916l-0.42582-0.4253h2.8985c0.2062 0 0.37191-0.16476 0.37361-0.37052h5.3e-4v-3e-3c-2.6e-4 -1.311 5.3e-4 -3.4798 5.3e-4 -4.7904 0-0.20617-0.16476-0.37191-0.37052-0.37362v-5.29e-4h-3e-3z" color="#000000" color-rendering="auto" dominant-baseline="auto" fill="#007dad" image-rendering="auto" shape-rendering="auto" solid-color="#000000" stop-color="#000000" style="font-feature-settings:normal;font-variant-alternates:normal;font-variant-caps:normal;font-variant-east-asian:normal;font-variant-ligatures:normal;font-variant-numeric:normal;font-variant-position:normal;font-variation-settings:normal;inline-size:0;isolation:auto;mix-blend-mode:normal;shape-margin:0;shape-padding:0;text-decoration-color:#000000;text-decoration-line:none;text-decoration-style:solid;text-indent:0;text-orientation:mixed;text-transform:none;white-space:normal"/>
 <path d="m6.5632 8.4381c-0.12469 0-0.24914 0.0293-0.34468 0.0884l-1.9208 1.188c-0.19107 0.11821-0.19107 0.30863 0 0.42685l1.8702 1.157c0.19109 0.11822 0.4988 0.11822 0.68989 0l1.9203-1.188c0.19109-0.11822 0.19109-0.30863 0-0.42685l-1.8702-1.157c-0.0955-0.0591-0.21999-0.0884-0.34468-0.0884z" color="#000000" color-rendering="auto" dominant-baseline="auto" fill="#8ac9e1" image-rendering="auto" shape-rendering="auto" solid-color="#000000" stop-color="#000000" style="font-feature-settings:normal;font-variant-alternates:normal;font-variant-caps:normal;font-variant-east-asian:normal;font-variant-ligatures:normal;font-variant-numeric:normal;font-variant-position:normal;font-variation-settings:normal;inline-size:0;isolation:auto;mix-blend-mode:normal;shape-margin:0;shape-padding:0;text-decoration-color:#000000;text-decoration-line:none;text-decoration-style:solid;text-indent:0;text-orientation:mixed;text-transform:none;white-space:normal"/>
 <g fill="#007dad" stroke-width=".26458" aria-label="PROJECT">
  <path d="m2.6755 16.674h0.26352v-0.8255h0.3429c0.4572 0 0.76835-0.20638 0.76835-0.64452 0-0.4572-0.31432-0.61278-0.78105-0.61278h-0.59372zm0.26352-1.0414v-0.82868h0.29845c0.36512 0 0.54928 0.09842 0.54928 0.40005 0 0.29528-0.17462 0.42862-0.53658 0.42862z"/>
  <path d="m4.7384 16.674h0.26352v-0.87948h0.37782l0.50165 0.87948h0.29845l-0.53022-0.90805c0.28575-0.06985 0.4699-0.2667 0.4699-0.59055 0-0.4318-0.3048-0.5842-0.73025-0.5842h-0.65088zm0.26352-1.0954v-0.7747h0.34925c0.32385 0 0.50482 0.09842 0.50482 0.37148 0 0.26988-0.18098 0.40322-0.50482 0.40322z"/>
  <path d="m7.5759 16.712c0.52388 0 0.89218-0.4191 0.89218-1.089 0-0.66358-0.3683-1.07-0.89218-1.07s-0.889 0.40322-0.889 1.07c0 0.66992 0.36512 1.089 0.889 1.089zm0-0.23178c-0.37148 0-0.61595-0.33655-0.61595-0.85725 0-0.51752 0.24448-0.8382 0.61595-0.8382s0.61595 0.32068 0.61595 0.8382c0 0.5207-0.24448 0.85725-0.61595 0.85725z"/>
  <path d="m9.4438 16.712c0.4064 0 0.57468-0.2921 0.57468-0.65088v-1.47h-0.2667v1.4446c0 0.3175-0.11112 0.4445-0.33338 0.4445-0.14922 0-0.2667-0.06985-0.35878-0.23495l-0.1905 0.13335c0.12065 0.21908 0.31115 0.33338 0.57468 0.33338z"/>
  <path d="m10.847 16.674h1.2319v-0.22542h-0.96838v-0.75565h0.79058v-0.22542h-0.79058v-0.65405h0.93662v-0.22225h-1.2002z"/>
  <path d="m13.573 16.712c0.26988 0 0.47308-0.11112 0.63818-0.30162l-0.14605-0.1651c-0.13335 0.14605-0.28258 0.23495-0.4826 0.23495-0.3937 0-0.64452-0.3302-0.64452-0.85408 0-0.51752 0.26035-0.84138 0.65405-0.84138 0.1778 0 0.31432 0.07937 0.42545 0.19685l0.14288-0.17145c-0.12065-0.13652-0.3175-0.25718-0.5715-0.25718-0.53022 0-0.92392 0.40958-0.92392 1.0795 0 0.67945 0.38735 1.0795 0.90805 1.0795z"/>
  <path d="m15.237 16.674h0.2667v-1.8606h0.62865v-0.22225h-1.524v0.22225h0.62865z"/>
 </g>
</svg>
