<?xml version="1.0" encoding="UTF-8" standalone="no"?>
<svg
   xmlns:dc="http://purl.org/dc/elements/1.1/"
   xmlns:cc="http://creativecommons.org/ns#"
   xmlns:rdf="http://www.w3.org/1999/02/22-rdf-syntax-ns#"
   xmlns:svg="http://www.w3.org/2000/svg"
   xmlns="http://www.w3.org/2000/svg"
   xmlns:sodipodi="http://sodipodi.sourceforge.net/DTD/sodipodi-0.dtd"
   xmlns:inkscape="http://www.inkscape.org/namespaces/inkscape"
   sodipodi:docname="pse-icon-encoding.svg"
   inkscape:version="1.0 (4035a4fb49, 2020-05-01)"
   id="svg1705"
   version="1.1"
   viewBox="0 0 18.520833 18.520834"
   height="70"
   width="70">
  <defs
     id="defs1699" />
  <sodipodi:namedview
     inkscape:snap-page="true"
     inkscape:window-maximized="0"
     inkscape:window-y="0"
     inkscape:window-x="2024"
     inkscape:window-height="1040"
     inkscape:window-width="1256"
     units="px"
     showgrid="false"
     inkscape:document-rotation="0"
     inkscape:current-layer="layer1"
     inkscape:document-units="mm"
     inkscape:cy="60.537776"
     inkscape:cx="38.082156"
     inkscape:zoom="5.1704948"
     inkscape:pageshadow="2"
     inkscape:pageopacity="0.0"
     borderopacity="1.0"
     bordercolor="#666666"
     pagecolor="#ffffff"
     id="base" />
  <metadata
     id="metadata1702">
    <rdf:RDF>
      <cc:Work
         rdf:about="">
        <dc:format>image/svg+xml</dc:format>
        <dc:type
           rdf:resource="http://purl.org/dc/dcmitype/StillImage" />
        <dc:title></dc:title>
      </cc:Work>
    </rdf:RDF>
  </metadata>
  <g
     id="layer1"
     inkscape:groupmode="layer"
     inkscape:label="Ebene 1">
    <g
       transform="translate(0,0.12071157)"
       id="g4688">
      <path
         d="m 8.61389,5.85279 c -0.10161,2.6e-4 -0.20666,0.006 -0.3142,0.0202 -0.1231,0.0158 -0.24935,0.0419 -0.37723,0.0801 -0.34079,0.1019 -0.69272,0.29272 -1.02578,0.6196 0.98085,-0.13417 1.16522,0.5908 1.19837,0.79943 0.0323,0.20885 0.0538,0.30123 0.0879,0.38913 0.11766,0.30156 0.35061,0.55736 0.67076,0.69711 0.64038,0.27941 1.38709,-0.0133 1.66656,-0.65371 0.27943,-0.64035 -0.0136,-1.38606 -0.65371,-1.66553 0,0 -0.54012,-0.28822 -1.25211,-0.28629 z m 3.04632,1.75234 c -0.0639,-0.007 -0.12683,-0.007 -0.18913,5.3e-4 -0.0712,0.009 -0.14155,0.0273 -0.21084,0.0584 -0.18481,0.0829 -0.36331,0.25073 -0.53692,0.52606 -0.69448,1.10136 0.21274,1.52338 1.32292,2.05362 0.50005,0.23873 2.52193,1.27289 2.9254,0.63304 0.40316,-0.64 -1.39822,-2.02383 -1.82831,-2.3735 C 12.5949,8.05744 12.10741,7.65677 11.66021,7.60514 Z"
         style="fill:#007dad;fill-opacity:1;stroke:none;stroke-width:0.726001;stroke-linecap:round;stroke-linejoin:round;stroke-miterlimit:4;stroke-dasharray:none;stroke-opacity:1"
         id="path944" />
      <path
         style="fill:#8ac9e1;fill-opacity:1;stroke:none;stroke-width:0.726001;stroke-linecap:round;stroke-linejoin:round;stroke-miterlimit:4;stroke-dasharray:none;stroke-opacity:1"
         d="m 9.70092,1.93417 a 0.43250001,0.43250001 0 0 0 -0.0429,0.004 0.43250001,0.43250001 0 0 0 -0.1695,0.0594 C 9.04321,2.26776 8.51386,2.70057 7.96458,3.26261 A 3.1399041,3.1399041 0 0 0 6.22412,2.99079 3.1399041,3.1399041 0 0 0 6.19772,2.99479 3.1399041,3.1399041 0 0 0 3.51726,6.51137 3.1399041,3.1399041 0 0 0 4.76834,8.63269 C 4.58317,9.28421 4.45761,9.96318 4.41953,10.66306 a 0.43250001,0.43250001 0 0 0 0.40979,0.45423 0.43250001,0.43250001 0 0 0 0.45527,-0.40773 C 5.31529,10.14581 5.41343,9.59286 5.5559,9.05489 A 3.1399041,3.1399041 0 0 0 7.03746,9.21818 3.1399041,3.1399041 0 0 0 8.19294,8.82854 C 7.95682,8.64792 7.76816,8.41829 7.63949,8.16088 A 2.2905835,2.2905835 0 0 1 6.92739,8.37586 2.2905835,2.2905835 0 0 1 4.35958,6.4013 2.2905835,2.2905835 0 0 1 6.33414,3.8335 2.2905835,2.2905835 0 0 1 8.73348,5.19621 c 0.37997,0.0122 0.70446,0.0837 0.94671,0.16174 A 3.1399041,3.1399041 0 0 0 8.70764,3.7503 C 9.17696,3.28551 9.61118,2.93545 9.93754,2.73744 A 0.43250001,0.43250001 0 0 0 10.08223,2.14316 0.43250001,0.43250001 0 0 0 9.70086,1.93491 Z"
         id="path947" />
      <text
         id="text973"
         y="16.552805"
         x="9.2282286"
         style="font-size:3.175px;line-height:1;font-family:sans-serif;letter-spacing:0.264583px;fill:#007dad;fill-opacity:1;stroke-width:0.264583"
         xml:space="preserve"><tspan
           id="tspan971"
           style="font-style:normal;font-variant:normal;font-weight:normal;font-stretch:normal;font-size:3.175px;font-family:'Source Sans Pro';-inkscape-font-specification:'Source Sans Pro';text-align:center;text-anchor:middle;fill:#007dad;fill-opacity:1;stroke-width:0.264583"
           y="16.552805"
           x="9.3605194"
           sodipodi:role="line">ENCODING</tspan></text>
    </g>
  </g>
</svg>
