<?xml version="1.0" encoding="UTF-8" standalone="no"?>
<svg
   xmlns:dc="http://purl.org/dc/elements/1.1/"
   xmlns:cc="http://creativecommons.org/ns#"
   xmlns:rdf="http://www.w3.org/1999/02/22-rdf-syntax-ns#"
   xmlns:svg="http://www.w3.org/2000/svg"
   xmlns="http://www.w3.org/2000/svg"
   xmlns:sodipodi="http://sodipodi.sourceforge.net/DTD/sodipodi-0.dtd"
   xmlns:inkscape="http://www.inkscape.org/namespaces/inkscape"
   width="70"
   height="70"
   viewBox="0 0 18.520834 18.520834"
   version="1.1"
   id="svg1080"
   inkscape:version="1.0 (4035a4fb49, 2020-05-01)"
   sodipodi:docname="pse-icon-dataset.svg">
  <defs
     id="defs1074" />
  <sodipodi:namedview
     inkscape:snap-text-baseline="true"
     inkscape:snap-page="true"
     id="base"
     pagecolor="#ffffff"
     bordercolor="#666666"
     borderopacity="1.0"
     inkscape:pageopacity="0.0"
     inkscape:pageshadow="2"
     inkscape:zoom="10.615644"
     inkscape:cx="37.004121"
     inkscape:cy="53.58856"
     inkscape:document-units="mm"
     inkscape:current-layer="layer1"
     inkscape:document-rotation="0"
     showgrid="false"
     units="px"
     fit-margin-top="0"
     fit-margin-left="0"
     fit-margin-right="0"
     fit-margin-bottom="0"
     inkscape:window-width="1920"
     inkscape:window-height="1017"
     inkscape:window-x="1912"
     inkscape:window-y="-8"
     inkscape:window-maximized="1" />
  <metadata
     id="metadata1077">
    <rdf:RDF>
      <cc:Work
         rdf:about="">
        <dc:format>image/svg+xml</dc:format>
        <dc:type
           rdf:resource="http://purl.org/dc/dcmitype/StillImage" />
        <dc:title />
      </cc:Work>
    </rdf:RDF>
  </metadata>
  <g
     inkscape:label="Ebene 1"
     inkscape:groupmode="layer"
     id="layer1"
     transform="translate(-31.46159,-34.701767)">
    <path
       sodipodi:nodetypes="sssscccccssscccccccccccccssc"
       d="m 36.795633,36.477118 c -1.01814,0 -1.84898,0.83238 -1.84898,1.85053 v 4.52844 c 0,1.01815 0.83084,1.85002 1.84898,1.85002 h 4.91753 v -0.72812 h -1.12344 v -2.4676 h 4.74065 v -3.18274 c 0,-1.01815 -0.83031,-1.85053 -1.84846,-1.85053 z m -1.122409,1.87198 h 4.188379 v 2.43472 h -4.188379 z m 4.916499,0 h 4.01408 v 2.43472 h -4.01408 z m -4.916499,3.16129 h 4.188379 v 2.4676 h -3.06597 c -0.628099,0 -1.122409,-0.49379 -1.122409,-1.1219 z"
       style="color:#000000;font-style:normal;font-variant:normal;font-weight:normal;font-stretch:normal;font-size:medium;line-height:normal;font-family:sans-serif;font-variant-ligatures:normal;font-variant-position:normal;font-variant-caps:normal;font-variant-numeric:normal;font-variant-alternates:normal;font-variant-east-asian:normal;font-feature-settings:normal;font-variation-settings:normal;text-indent:0;text-align:start;text-decoration:none;text-decoration-line:none;text-decoration-style:solid;text-decoration-color:#000000;letter-spacing:normal;word-spacing:normal;text-transform:none;writing-mode:lr-tb;direction:ltr;text-orientation:mixed;dominant-baseline:auto;baseline-shift:baseline;text-anchor:start;white-space:normal;shape-padding:0;shape-margin:0;inline-size:0;clip-rule:nonzero;display:inline;overflow:visible;visibility:visible;isolation:auto;mix-blend-mode:normal;color-interpolation:sRGB;color-interpolation-filters:linearRGB;solid-color:#000000;solid-opacity:1;vector-effect:none;fill:#007dad;fill-opacity:1;fill-rule:nonzero;stroke:none;stroke-width:0.726747;stroke-linecap:round;stroke-linejoin:round;stroke-miterlimit:4;stroke-dasharray:none;stroke-dashoffset:0;stroke-opacity:1;color-rendering:auto;image-rendering:auto;shape-rendering:auto;text-rendering:auto;enable-background:accumulate;stop-color:#000000"
       id="path940" />
    <path
       sodipodi:nodetypes="ssssssssssccsccccssccsssccscccss"
       d="m 43.208163,42.237028 c -0.42577,0 -0.76843,0.34317 -0.76843,0.76894 v 2.52078 c 0,0.42576 0.34266,0.76843 0.76843,0.76843 h 2.52078 c 0.42577,0 0.76843,-0.34267 0.76843,-0.76843 v -2.52078 c 0,-0.42577 -0.34266,-0.76894 -0.76843,-0.76894 z m 1.25987,0.51883 c -0.0233,0.005 0.0483,0.002 0.0718,0.007 h 5.29e-4 c 0.0234,0.004 0.0458,0.0116 0.0682,0.0207 0.0227,0.009 0.0447,0.0208 0.0656,0.0346 h 5.3e-4 c 0.0207,0.0137 0.0397,0.0298 0.0579,0.0481 h 5.29e-4 l 1.0635,1.0635 c 0.14654,0.14654 0.14654,0.38262 0,0.529171 -0.14655,0.14654 -0.38213,0.146559 -0.52865,0 l -0.4253,-0.425821 v 1.36943 c 0,0.20724 -0.16689,0.37414 -0.37413,0.37414 -0.20724,0 -0.37414,-0.1669 -0.37414,-0.37414 v -1.368909 l -0.4253,0.4253 c -0.14659,0.1465 -0.38262,0.14654 -0.52917,0 -0.14655,-0.14655 -0.14705,-0.38262 -5.29e-4,-0.52917 l 1.06402,-1.0635 c 0.0367,-0.0366 0.0791,-0.0644 0.12402,-0.0827 0.0451,-0.0183 0.18723,-0.0378 0.14056,-0.0274 z"
       style="color:#000000;font-style:normal;font-variant:normal;font-weight:normal;font-stretch:normal;font-size:medium;line-height:normal;font-family:sans-serif;font-variant-ligatures:normal;font-variant-position:normal;font-variant-caps:normal;font-variant-numeric:normal;font-variant-alternates:normal;font-variant-east-asian:normal;font-feature-settings:normal;font-variation-settings:normal;text-indent:0;text-align:start;text-decoration:none;text-decoration-line:none;text-decoration-style:solid;text-decoration-color:#000000;letter-spacing:normal;word-spacing:normal;text-transform:none;writing-mode:lr-tb;direction:ltr;text-orientation:mixed;dominant-baseline:auto;baseline-shift:baseline;text-anchor:start;white-space:normal;shape-padding:0;shape-margin:0;inline-size:0;clip-rule:nonzero;display:inline;overflow:visible;visibility:visible;isolation:auto;mix-blend-mode:normal;color-interpolation:sRGB;color-interpolation-filters:linearRGB;solid-color:#000000;solid-opacity:1;vector-effect:none;fill:#8ac9e1;fill-opacity:1;fill-rule:nonzero;stroke:none;stroke-width:0.726747;stroke-linecap:round;stroke-linejoin:round;stroke-miterlimit:4;stroke-dasharray:none;stroke-dashoffset:0;stroke-opacity:1;color-rendering:auto;image-rendering:auto;shape-rendering:auto;text-rendering:auto;enable-background:accumulate;stop-color:#000000"
       id="path942" />
    <text
       id="text969"
       y="51.413383"
       x="40.633327"
       style="font-size:3.175px;line-height:1;font-family:sans-serif;letter-spacing:0.264583px;fill:#007dad;fill-opacity:1;stroke-width:0.264583;"
       xml:space="preserve"><tspan
         id="tspan967"
         style="font-style:normal;font-variant:normal;font-weight:normal;font-stretch:normal;font-family:'Source Sans Pro';-inkscape-font-specification:'Source Sans Pro';text-align:center;text-anchor:middle;fill:#007dad;fill-opacity:1;stroke-width:0.264583;font-size:3.175px;"
         y="51.413383"
         x="40.765617"
         sodipodi:role="line">DATASET</tspan></text>
  </g>
</svg>
