<?xml version="1.0" encoding="UTF-8"?>
<svg width="11.906mm" height="11.906mm" version="1.1" viewBox="0 0 11.906 11.906" xmlns="http://www.w3.org/2000/svg" xmlns:cc="http://creativecommons.org/ns#" xmlns:dc="http://purl.org/dc/elements/1.1/" xmlns:rdf="http://www.w3.org/1999/02/22-rdf-syntax-ns#">
 <metadata>
  <rdf:RDF>
   <cc:Work rdf:about="">
    <dc:format>image/svg+xml</dc:format>
    <dc:type rdf:resource="http://purl.org/dc/dcmitype/StillImage"/>
    <dc:title/>
   </cc:Work>
  </rdf:RDF>
 </metadata>
 <g transform="translate(-2234.9 407.9)">
  <rect x="1353.8" y="-115.3" width="266.7" height="266.7" ry="1.3726" fill-opacity="0"/>
  <path d="m2240.9-404.86c-0.9984 0-1.68 0.92282-1.7039 1.7155 1e-4 0.57551 0.289 1.1126 0.7688 1.4303h1.8703c0.4799-0.31766 0.7686-0.85479 0.7686-1.4303-0.024-0.79272-0.7055-1.7155-1.7038-1.7155zm-0.9803 3.562c0 0.86757-0.677 2.003-1.0851 2.3832h4.1307c-0.4081-0.3802-1.0848-1.5156-1.0848-2.3832zm-1.1642 2.7993v0.83687a0.41966 0.41966 0 0 0 0.4197 0.41967h3.4495a0.41966 0.41966 0 0 0 0.4197-0.41967v-0.83687z" fill="#404040"/>
 </g>
</svg>
