<?xml version="1.0" encoding="UTF-8"?>
<svg width="11.906mm" height="11.906mm" version="1.1" viewBox="0 0 11.906 11.906" xmlns="http://www.w3.org/2000/svg" xmlns:cc="http://creativecommons.org/ns#" xmlns:dc="http://purl.org/dc/elements/1.1/" xmlns:rdf="http://www.w3.org/1999/02/22-rdf-syntax-ns#">
 <metadata>
  <rdf:RDF>
   <cc:Work rdf:about="">
    <dc:format>image/svg+xml</dc:format>
    <dc:type rdf:resource="http://purl.org/dc/dcmitype/StillImage"/>
    <dc:title/>
   </cc:Work>
  </rdf:RDF>
 </metadata>
 <g transform="translate(-2234.9 407.9)">
  <rect x="1353.8" y="-115.3" width="266.7" height="266.7" ry="1.3726" fill-opacity="0"/>
  <path d="m2240.8-406.17c-0.075 0-0.1347 0.0598-0.1347 0.13442v0.47532h-0.4719c-0.075 0-0.1346 0.0598-0.1346 0.13443v0.22274c0 0.0746 0.06 0.13463 0.1346 0.13463h0.4719v0.57732c-0.6156 0.0786-1.1614 0.45605-1.4456 1.0184 0.8253 0.3258 1.4528 1.1265 1.6772 1.8682 0.2243-0.74167 0.8519-1.5424 1.6772-1.8682-0.2798-0.55369-0.813-0.92892-1.417-1.0154v-0.5804h0.4719c0.075 0 0.1347-0.06 0.1347-0.13463v-0.22274c0-0.0746-0.06-0.13443-0.1347-0.13443h-0.4719v-0.47532c0-0.0746-0.06-0.13442-0.1346-0.13442zm-2.4852 2.9913c-0.7715-0.0103-1.4375 0.44265-1.6256 1.0188-0.4868 1.4905 0.9485 2.4293 0.9485 2.4293 0.6721-0.31639 2.0985-0.7047 3.0203-0.7047-0.046-0.72785-0.3475-1.9311-1.4115-2.4983-0.3118-0.16622-0.6299-0.24108-0.9317-0.24508zm5.1642 0c-0.3018 4e-3 -0.6199 0.0789-0.9317 0.24508-1.064 0.56723-1.3656 1.7705-1.4115 2.4983 0.9218 0 2.3482 0.38831 3.0203 0.7047 0 0 1.4353-0.93872 0.9485-2.4293-0.1881-0.57618-0.8542-1.0291-1.6256-1.0188zm-2.5821 3.2163c-1.0025 0-2.1794 0.27375-2.9532 0.6213v1.0133c0.7372-0.29163 1.9143-0.58221 2.9532-0.57274 1.0389-9e-3 2.2159 0.28111 2.9532 0.57274v-1.0133c-0.7739-0.34755-1.9508-0.6213-2.9532-0.6213zm0 1.544c-1.0652 0-2.2407 0.30798-2.7748 0.54712 0.6619 0.32768 1.7414 0.62567 2.7748 0.62602 1.0334-3.4e-4 2.1129-0.29834 2.7747-0.62602-0.5341-0.23916-1.7095-0.54712-2.7747-0.54712z" fill="#404040"/>
 </g>
</svg>
