<?xml version="1.0" encoding="UTF-8"?>
<svg width="11.906mm" height="11.906mm" version="1.1" viewBox="0 0 11.906 11.906" xmlns="http://www.w3.org/2000/svg" xmlns:cc="http://creativecommons.org/ns#" xmlns:dc="http://purl.org/dc/elements/1.1/" xmlns:rdf="http://www.w3.org/1999/02/22-rdf-syntax-ns#">
 <metadata>
  <rdf:RDF>
   <cc:Work rdf:about="">
    <dc:format>image/svg+xml</dc:format>
    <dc:type rdf:resource="http://purl.org/dc/dcmitype/StillImage"/>
    <dc:title/>
   </cc:Work>
  </rdf:RDF>
 </metadata>
 <g transform="translate(-2234.9 407.9)">
  <rect x="1353.8" y="-115.3" width="266.7" height="266.7" ry="1.3726" fill-opacity="0"/>
  <g transform="matrix(.39653 0 0 .39653 1368.2 -260.5)" stroke-width="2.5219">
   <path d="m2200-357.55c0.9705 1.8959-0.8127 4.625-3.0081 6.5308-0.3311 0.28733-0.6321 0.86461-0.6618 1.302l-0.2764 4.0776c-0.029 0.42844 0.3107 0.79195 0.7401 0.79193h13.766c0.4383 0 0.7786-0.35506 0.757-0.7929-0.6925-13.989-3.9724-21.049-12.21-21.519-1.4028-0.88844-3.017-1.5626-5.1609-1.4679-0.4378 0.0193-0.7249 0.41695-0.6439 0.84777l0.4733 2.516c-1.0639 1.5132-1.2335 2.2972-1.5051 3.6023-0.1388 0.66692-0.2383 1.4857-0.4462 2.0083-0.3688 0.92703-0.7613 1.0032-1.2707 2.0381-0.3028 0.61511-0.2819 1.3828-0.3496 2.3046-0.021 0.29138 0.1533 0.64965 0.4032 0.8013l3.3328 2.023c0.2499 0.15165 0.6203 0.10686 0.8446-0.0804 0.7913-0.6609 2.0372-1.4695 2.9261-2.1933 1.0557-0.85963 1.6202-1.5503 2.2899-2.7905z" fill="#404040"/>
   <path d="m2194.6-367.38 0.4258 2.2148c0.028 0.14351-0.037 0.3406-0.1359 0.44804-0.8632 0.93623-1.3093 2.309-1.496 3.5316-0.3845 2.5154-0.8833 2.8139-1.5689 3.7781-0.3581 0.50353-0.3495 0.97279-0.3824 1.9544l2.79 1.6815c0.9006-0.66 2.4136-1.6742 3.2313-2.4918 1.4681-1.4682 1.005-1.7114 1.7157-2.3068 1.3597-1.1394 2.3537 0.79579 2.2887 2.1094-0.1105 2.225-1.6182 4.4452-2.9863 5.7738h11.108c-0.6116-9.3555-4.363-15.245-10.938-15.245-0.481-0.36084-2.3897-1.448-4.0524-1.448zm1.4651 4.6902c0.6229 5e-5 1.128 0.50506 1.128 1.128 0 0.62296-0.5051 1.128-1.128 1.128-0.6233 3.1e-4 -1.1287-0.50479-1.1287-1.128 0-0.62323 0.5054-1.1283 1.1287-1.128zm1.4598 13.27-0.1969 3.2913h12.645l-0.247-3.2913z" fill="#fff"/>
  </g>
 </g>
</svg>
