<?xml version="1.0" encoding="UTF-8"?>
<svg width="11.906mm" height="11.906mm" version="1.1" viewBox="0 0 11.906 11.906" xmlns="http://www.w3.org/2000/svg" xmlns:cc="http://creativecommons.org/ns#" xmlns:dc="http://purl.org/dc/elements/1.1/" xmlns:rdf="http://www.w3.org/1999/02/22-rdf-syntax-ns#">
 <metadata>
  <rdf:RDF>
   <cc:Work rdf:about="">
    <dc:format>image/svg+xml</dc:format>
    <dc:type rdf:resource="http://purl.org/dc/dcmitype/StillImage"/>
    <dc:title/>
   </cc:Work>
  </rdf:RDF>
 </metadata>
 <g transform="translate(-2234.9 407.9)">
  <rect x="1353.8" y="-115.3" width="266.7" height="266.7" ry="1.3726" fill-opacity="0"/>
  <path d="m2240.9-406.08c-0.4722 0-0.7784 0.39336-0.7896 0.76126 1e-4 0.30347 0.1589 0.57966 0.4335 0.709l-0.8027 4.0149-2.4813-2.4166c0.064-0.11614 0.098-0.24673 0.098-0.37949 1e-4 -0.43295-0.3508-0.78398-0.7838-0.784-0.4329 2e-5 -0.8002 0.3961-0.7837 0.784 0.022 0.51486 0.4283 0.77306 0.827 0.78256l1.2364 2.7692c0.9181-0.38949 2.109-0.60737 3.0461-0.60737 0.937 0 2.1278 0.21788 3.0458 0.60737l1.2365-2.7692c0.3986-0.01 0.8052-0.2677 0.827-0.78256 0.016-0.3879-0.3508-0.78398-0.7838-0.784-0.4329 2e-5 -0.7839 0.35105-0.7838 0.784 1e-4 0.13276 0.034 0.26335 0.098 0.37949l-2.4813 2.4166-0.8027-4.0149c0.2746-0.12934 0.4334-0.40553 0.4334-0.709-0.011-0.3679-0.3171-0.76126-0.7893-0.76126zm-2.3069 0.70511c-0.4324 8e-4 -0.7826 0.35141-0.7826 0.7838-1e-4 0.38543 0.2802 0.71368 0.6608 0.77416l0.1402 1.4844 0.8418 0.81966 0.268-1.3338-0.6117-1.1539c0.1707-0.14882 0.2738-0.38631 0.2687-0.59056-0.013-0.50436-0.4197-0.77272-0.7852-0.7838zm4.6136 0c-0.3655 0.0111-0.7725 0.27944-0.7852 0.7838-0.01 0.20425 0.098 0.44174 0.2686 0.59056l-0.6117 1.1539 0.2681 1.3338 0.8418-0.81966 0.1401-1.4844c0.3807-0.0605 0.6609-0.38873 0.6608-0.77416 0-0.43239-0.3501-0.783-0.7825-0.7838zm-2.3067 5.4106c-1.0029 0-2.1906 0.27355-2.9649 0.6213v1.0133c0.7377-0.2918 1.9256-0.58257 2.9649-0.57274 1.0393-0.01 2.227 0.28094 2.9647 0.57274v-1.0133c-0.7744-0.34775-1.9619-0.6213-2.9647-0.6213zm0 1.544c-1.0657 0-2.252 0.30778-2.7865 0.54711 0.6623 0.32787 1.7525 0.62602 2.7865 0.62602s2.1239-0.29815 2.7862-0.62602c-0.5344-0.23933-1.7205-0.54711-2.7862-0.54711z" fill="#404040"/>
 </g>
</svg>
