<?xml version="1.0" encoding="UTF-8"?>
<svg width="11.906mm" height="11.906mm" version="1.1" viewBox="0 0 11.906 11.906" xmlns="http://www.w3.org/2000/svg" xmlns:cc="http://creativecommons.org/ns#" xmlns:dc="http://purl.org/dc/elements/1.1/" xmlns:rdf="http://www.w3.org/1999/02/22-rdf-syntax-ns#">
 <metadata>
  <rdf:RDF>
   <cc:Work rdf:about="">
    <dc:format>image/svg+xml</dc:format>
    <dc:type rdf:resource="http://purl.org/dc/dcmitype/StillImage"/>
    <dc:title/>
   </cc:Work>
  </rdf:RDF>
 </metadata>
 <g transform="translate(-2234.9 407.9)">
  <rect x="1353.8" y="-115.3" width="266.7" height="266.7" ry="1.3726" fill-opacity="0"/>
  <g transform="matrix(.39653 0 0 .39653 1398.9 -269.93)" stroke-width="2.5219">
   <path d="m2123.3-343.68c-1.1167 0-1.9962 1.0038-1.9962 1.9017 0 0.49472 0.069 0.91612 0.4532 1.4134-2.3728 0.95957-5.0152 2.7895-5.0152 5.1604 0 1.3842 0.8742 2.6904 2.0257 3.5104v2.0939c-1.4187 0.55515-1.8815 2.9392 0.5979 3.2024-0.4904 0.10332-1.9984 0.25538-3.0019 0.39894-1.3823 0.19779-2.4644 0.3247-3.7793 1.44-0.3342 0.28343-0.3904 0.84261-0.1569 1.2137l1.078 1.7135c0.2335 0.37105 0.7283 0.48873 1.1255 0.30359 1.337-0.62315 2.4717-0.71153 3.7595-0.89213 1.6885-0.23678 3.3923-0.52036 4.9097-1.68 1.5176 1.1596 3.2208 1.4432 4.9093 1.68 1.288 0.18062 2.4229 0.26901 3.76 0.89241 0.3969 0.18501 0.8915 0.0672 1.125-0.30387l1.078-1.7135c0.2335-0.37105 0.1773-0.93026-0.1569-1.2137-1.315-1.1153-2.397-1.2422-3.7793-1.44-1.0035-0.14356-2.5115-0.29562-3.0019-0.39894 2.4794-0.26318 2.0166-2.6472 0.5979-3.2024v-2.0939c1.1515-0.82 2.0257-2.1262 2.0257-3.5104 0-2.3709-2.6424-4.2008-5.0152-5.1604 0.3838-0.49723 0.4537-0.91863 0.4537-1.4134 0-0.89794-0.8796-1.9017-1.9963-1.9017z" fill="#404040"/>
   <path d="m2123.3-342.41c-0.4122 5e-3 -0.7417 0.33782-0.7415 0.74568 2e-4 0.41365 0.3279 0.75112 0.7415 0.75189 0.4137-7.7e-4 0.7409-0.33827 0.7411-0.75189 1e-4 -0.40786-0.3288-0.74068-0.7411-0.74568zm0 2.7776c-3.5033 1.0733-7.7846 4.1576-3.5284 7.106h7.0569c4.2562-2.9485-0.025-6.0327-3.5285-7.106zm-3.2757 8.3644v1.1472h6.5515v-1.1472zm-0.063 2.403c-0.9869 0-1.674 1.2036-0.6738 1.2036h8.0238c1.0002 0 0.3131-1.2036-0.6739-1.2036zm2.0924 2.4639c-0.6537 0.86357-2.0522 1.2904-4.3553 1.4862-1.4048 0.11943-3.4849 0.44444-4.0524 1.1291l0.7343 1.1782c1.5151-0.64381 2.6751-0.68115 4.2034-0.91623 2.0683-0.31817 2.9992-0.65194 4.0971-1.4756 0.3506-0.26302 0.887-0.26304 1.2376-1e-5 1.0979 0.82362 2.0283 1.1574 4.0967 1.4756 1.5282 0.23508 2.6883 0.27242 4.2034 0.91623l0.7343-1.1782c-0.5675-0.68469-2.6477-1.0097-4.0525-1.1291-2.303-0.19577-3.7009-0.62265-4.3547-1.4862z" fill="#fff"/>
  </g>
 </g>
</svg>
