<?xml version="1.0" encoding="UTF-8"?>
<svg width="11.906mm" height="11.906mm" version="1.1" viewBox="0 0 11.906 11.906" xmlns="http://www.w3.org/2000/svg" xmlns:cc="http://creativecommons.org/ns#" xmlns:dc="http://purl.org/dc/elements/1.1/" xmlns:rdf="http://www.w3.org/1999/02/22-rdf-syntax-ns#">
 <metadata>
  <rdf:RDF>
   <cc:Work rdf:about="">
    <dc:format>image/svg+xml</dc:format>
    <dc:type rdf:resource="http://purl.org/dc/dcmitype/StillImage"/>
    <dc:title/>
   </cc:Work>
  </rdf:RDF>
 </metadata>
 <g transform="translate(-2234.9 407.9)">
  <rect x="1353.8" y="-115.3" width="266.7" height="266.7" ry="1.3726" fill-opacity="0"/>
  <g transform="matrix(.39653 0 0 .39653 1388.8 -260.58)" stroke-width="2.5219">
   <path d="m2149-364.49c-2.5186 0-4.9733 1.9882-4.9733 4.8493 0 2.0812 0.8632 3.3748 2.0598 4.3124 0 2.7212-1.2817 4.907-2.2494 6.0309-0.2857 0.33183-0.5561 0.92047-0.5561 1.3588v2.498a0.79375 0.79375 0 0 0 0.7937 0.79375h9.8511a0.79375 0.79375 0 0 0 0.7938-0.79375v-2.498c0-0.43838-0.2705-1.0271-0.5563-1.359-0.9677-1.1239-2.2493-3.3096-2.2493-6.0308 1.1966-0.93761 2.0599-2.2312 2.0599-4.3124 0-2.8611-2.4553-4.8493-4.9739-4.8493z" fill="#404040"/>
   <path transform="scale(.26458)" d="m8122.1-1372.8c-7.6161 0-14.064 6.244-14.064 13.65 0 5.0277 1.8453 10.822 7.3184 13.328h13.494c5.4732-2.5058 7.3184-8.3004 7.3184-13.328 0-7.4064-6.4495-13.65-14.066-13.65zm-6.0391 31.885c0 6.3351-3.3644 13.406-8.2089 21.379h28.498c-4.8446-7.9732-8.207-15.044-8.207-21.379zm-10.795 26.242v7.3183h33.67v-7.3183z" fill="#fff"/>
  </g>
 </g>
</svg>
