<?xml version="1.0" encoding="UTF-8"?>
<svg width="11.906mm" height="11.906mm" version="1.1" viewBox="0 0 11.906 11.906" xmlns="http://www.w3.org/2000/svg" xmlns:cc="http://creativecommons.org/ns#" xmlns:dc="http://purl.org/dc/elements/1.1/" xmlns:rdf="http://www.w3.org/1999/02/22-rdf-syntax-ns#">
 <metadata>
  <rdf:RDF>
   <cc:Work rdf:about="">
    <dc:format>image/svg+xml</dc:format>
    <dc:type rdf:resource="http://purl.org/dc/dcmitype/StillImage"/>
    <dc:title/>
   </cc:Work>
  </rdf:RDF>
 </metadata>
 <g transform="translate(-2234.9 407.9)">
  <rect x="1353.8" y="-115.3" width="266.7" height="266.7" ry="1.3726" fill-opacity="0"/>
  <path d="m2240.9-405.97c-0.3361 0-0.5531 0.27465-0.561 0.54097 0 0.16715 0.031 0.25259 0.1231 0.38277-1.5997 0.59362-2.8592 1.8294-1.6485 3.1403h4.1728c1.2107-1.3109-0.049-2.5467-1.6485-3.1403 0.092-0.13018 0.1232-0.21562 0.1232-0.38277-0.01-0.26632-0.225-0.54097-0.5611-0.54097zm-1.7348 4.5659-0.01 0.59015h3.4839l-0.01-0.59015h-1.7349zm-0.3516 1.0916c-0.1885 0.18484-0.1017 0.6478 0.3272 0.68852 0.2785 0.0264 0.8234 0.0766 0.8234 0.0766-0.3372 0.47515-0.6912 0.49372-1.567 0.58442-0.542 0.0561-1.0323 0.16791-1.5257 0.51829-0.125 0.0887-0.1506 0.27513-0.067 0.40352l0.3568 0.5469c0.084 0.1284 0.2452 0.14857 0.3782 0.0728 0.4593-0.26181 1.133-0.35766 1.6901-0.47923 1.116-0.24353 1.6702-0.75347 1.6702-0.75347s0.5543 0.50994 1.6703 0.75347c0.5571 0.12159 1.231 0.21746 1.6903 0.47936 0.1328 0.0757 0.2941 0.0555 0.3779-0.0729l0.3569-0.5469c0.084-0.12839 0.058-0.31479-0.067-0.40352-0.4933-0.35038-0.9837-0.46216-1.5257-0.51829-0.8757-0.0907-1.2297-0.10927-1.5669-0.58442 0 0 0.5448-0.0502 0.8233-0.0766 0.429-0.0407 0.5157-0.50368 0.3272-0.68852h-2.0864z" fill="#404040"/>
 </g>
</svg>
