<?xml version="1.0" encoding="UTF-8"?>
<svg width="11.906mm" height="11.906mm" version="1.1" viewBox="0 0 11.906 11.906" xmlns="http://www.w3.org/2000/svg" xmlns:cc="http://creativecommons.org/ns#" xmlns:dc="http://purl.org/dc/elements/1.1/" xmlns:rdf="http://www.w3.org/1999/02/22-rdf-syntax-ns#">
 <metadata>
  <rdf:RDF>
   <cc:Work rdf:about="">
    <dc:format>image/svg+xml</dc:format>
    <dc:type rdf:resource="http://purl.org/dc/dcmitype/StillImage"/>
    <dc:title/>
   </cc:Work>
  </rdf:RDF>
 </metadata>
 <g transform="translate(-2234.9 407.9)">
  <rect x="1353.8" y="-115.3" width="266.7" height="266.7" ry="1.3726" fill-opacity="0"/>
  <g transform="matrix(.39653 0 0 .39653 1395.4 -260.02)" stroke-width="2.5219">
   <path transform="scale(.26458)" d="m8057.7-1397c-0.7415 0-1.3379 0.5979-1.3379 1.3399v4.6592h-4.4726c-0.742 0-1.3379 0.598-1.3379 1.3398v1.9961c0 0.7419 0.5959 1.3322 1.3379 1.3399h4.4726v5.5673c-12.467 1.2918-16.734 12.662-16.734 12.662-27.541-5.2642-30.22 27.798-9.2031 37.283v12.856c0 1.6569 1.1807 3.6433 2.6895 4.3281 7.2771 3.3042 17.175 5.6699 25.586 5.6699s18.309-2.3657 25.586-5.6699c1.5088-0.6848 2.6895-2.6712 2.6895-4.3281v-12.856c21.017-9.4853 18.338-42.547-9.2031-37.283 0 0-4.2691-11.37-16.736-12.662v-5.5673h4.4727c0.7423 0 1.3398-0.598 1.3398-1.3399v-1.9961c0-0.7418-0.5975-1.3475-1.3398-1.3398h-4.4727v-4.6592c0-0.742-0.5959-1.3399-1.3378-1.3399z" fill="#404040"/>
   <path d="m2132.2-364.13c-1.3108 0-3.1518 0.60944-3.7884 2.5792 0.9713 0.30932 3.2119 1.9579 3.7884 3.5073 0.5765-1.5494 2.8171-3.198 3.7884-3.5073-0.6366-1.9698-2.4776-2.5792-3.7884-2.5792zm-6.6254 3.2613c-1.7909 0.0127-3.0033 1.0972-3.2236 2.529-0.5146 3.3447 2.6636 5.0987 3.2716 5.4777 1.6905-0.89778 4.5101-1.4273 5.9516-1.4273-0.088-2.9225-1.0768-4.6436-2.7688-5.6131-1.196-0.68537-2.2927-0.973-3.2308-0.96636zm13.251 0c-0.938-7e-3 -2.0348 0.28099-3.2308 0.96636-1.692 0.96952-2.6818 2.6906-2.7688 5.6131 1.4415 0 4.2611 0.52953 5.9516 1.4273 0.6079-0.37899 3.7862-2.133 3.2716-5.4777-0.2203-1.4319-1.4327-2.5164-3.2236-2.529zm-6.6326 7.844c-2.1009 0-4.4881 0.57833-6.1495 1.3064l-0.01 2.1286c1.3642-0.53967 4.2368-1.2429 6.1588-1.2247 1.9222-0.0183 4.796 0.68506 6.1603 1.2247l-0.01-2.1286c-1.6614-0.72805-4.0485-1.3064-6.1495-1.3064zm0 3.4732c-2.1138 7e-3 -4.3588 0.54602-5.5775 1.0811 0.7261 0.293 3.39 1.1229 5.5775 1.1229s4.8513-0.82991 5.5774-1.1229c-1.2187-0.53504-3.4635-1.0743-5.5774-1.0811z" fill="#fff"/>
  </g>
 </g>
</svg>
