<?xml version="1.0" encoding="UTF-8"?>
<svg width="11.906mm" height="11.906mm" version="1.1" viewBox="0 0 11.906 11.906" xmlns="http://www.w3.org/2000/svg" xmlns:cc="http://creativecommons.org/ns#" xmlns:dc="http://purl.org/dc/elements/1.1/" xmlns:rdf="http://www.w3.org/1999/02/22-rdf-syntax-ns#">
 <metadata>
  <rdf:RDF>
   <cc:Work rdf:about="">
    <dc:format>image/svg+xml</dc:format>
    <dc:type rdf:resource="http://purl.org/dc/dcmitype/StillImage"/>
    <dc:title/>
   </cc:Work>
  </rdf:RDF>
 </metadata>
 <g transform="translate(-2234.9 407.9)">
  <rect x="1353.8" y="-115.3" width="266.7" height="266.7" ry="1.3726" fill-opacity="0"/>
  <g transform="matrix(.39653 0 0 .39653 1405.4 -259.26)" stroke-width="2.5219">
   <path transform="scale(.26458)" d="m7963.5-1401c-3.4907 0-6.6819 1.8529-8.4277 5.7949-1.6267 3.6722-0.3082 8.2929 2.9531 10.881l-2.4472 17.084-6.1465-12.144c3.6915-4.9111 1.5579-11.531-3.2266-13.92-4.7134-2.3538-11.299 0.013-12.814 5.7793-1.3852 5.2695 1.9251 9.9659 5.4238 11.105l2.5996 15.15-9.7558-9.9512c1.8383-5.7423-2.2411-10.921-7.3204-11.812-4.8083-0.8438-10.617 2.6427-10.451 9.7852 0.1247 5.2942 4.8662 8.6669 8.9746 8.5762l12.391 26.643v12.855c0 1.6569 1.181 3.6433 2.6895 4.3281 7.2774 3.3042 17.147 5.67 25.558 5.67 8.4114 0 18.281-2.3658 25.559-5.67 1.5085-0.6848 2.6895-2.6712 2.6895-4.3281v-12.855l12.391-26.643c4.1084 0.091 8.8519-3.282 8.9766-8.5762 0.1663-7.1425-5.6448-10.629-10.453-9.7852-5.0793 0.8914-9.1568 6.0702-7.3184 11.812l-9.7578 9.9512 2.5996-15.15c3.4987-1.1395 6.809-5.8359 5.4238-11.105-1.5156-5.7659-8.101-8.1331-12.814-5.7793-4.7845 2.3892-6.9161 9.0088-3.2246 13.92l-6.1485 12.144-2.4472-17.084c3.2613-2.5879 4.5817-7.2086 2.955-10.881-1.7457-3.942-4.9389-5.7949-8.4297-5.7949z" fill="#404040"/>
   <path transform="scale(.26458)" d="m7963.5-1396.2a4.4412 4.4412 0 0 0-4.4414 4.4414 4.4412 4.4412 0 0 0 4.4414 4.4414 4.4412 4.4412 0 0 0 4.4415-4.4414 4.4412 4.4412 0 0 0-4.4415-4.4414zm21.348 6.7402c-2.4642-5e-4 -4.4623 1.9967-4.4629 4.4609-5e-4 2.465 1.9979 4.4634 4.4629 4.4629 2.4642-6e-4 4.4614-1.9987 4.4609-4.4629-6e-4 -2.4635-1.9974-4.4603-4.4609-4.4609zm-42.719 0.022c-2.4882 0.022-4.4373 2.0069-4.4375 4.4394-5e-4 2.4642 1.9967 4.4623 4.4609 4.4629 2.465 5e-4 4.4634-1.9979 4.4629-4.4629-6e-4 -2.4642-1.9981-4.4617-4.4863-4.4394zm20.385 6.9101-4.8867 36.524s2.9792-0.3067 5.873-0.3067c2.894 0 5.8731 0.3067 5.8731 0.3067l-4.8848-36.524s-0.3612 0.061-0.9883 0.061c-0.6269 0-0.9863-0.061-0.9863-0.061zm41.529 4.1739c-2.4642-5e-4 -4.4623 1.9967-4.4629 4.4609-5e-4 2.465 1.9979 4.4634 4.4629 4.4629 2.4643-5e-4 4.4615-1.9986 4.461-4.4629-6e-4 -2.4635-1.9975-4.4604-4.461-4.4609zm-81.109 0.022c-2.4889 0.022-4.4373 2.0068-4.4375 4.4394-5e-4 2.465 1.9979 4.4634 4.4629 4.4629 2.4643-5e-4 4.4615-1.9986 4.461-4.4629-6e-4 -2.4635-1.9976-4.4612-4.4864-4.4394zm22.664 1.9082c-0.4539 0.2383-1.873 0.5507-1.873 0.5507l3.5332 20.531 6.0332 6.0996 1.2851-9.5019zm35.807 0-8.9785 17.68 1.2832 9.5019 6.0352-6.0996 3.5312-20.531s-1.4171-0.3125-1.8711-0.5507zm-52.285 9.3671s-1.0146 0.9419-1.6445 1.2188l11.699 24.68c2.1987-1.2358 9.3077-3.2325 11.779-3.7461zm68.762 0-21.834 22.152c2.4715 0.5136 9.5804 2.5103 11.779 3.7461l11.701-24.68c-0.6301-0.2769-1.6465-1.2187-1.6465-1.2188zm-34.381 25.549c-7.9406 0-16.963 2.1858-23.242 4.9375l-0.037 8.0449c5.1564-2.0397 16.015-4.6976 23.279-4.6289 7.2647-0.069 18.125 2.5892 23.281 4.6289l-0.039-8.0449c-6.2793-2.7517-15.301-4.9375-23.242-4.9375zm0 13.127c-7.9894 0.025-16.474 2.0638-21.08 4.086 2.7443 1.1074 12.812 4.2441 21.08 4.2441 8.2678 0 18.336-3.1367 21.08-4.2441-4.6061-2.0222-13.09-4.0605-21.08-4.086z" fill="#fff"/>
  </g>
 </g>
</svg>
