<?xml version="1.0" encoding="UTF-8"?>
<svg width="11.906mm" height="11.906mm" version="1.1" viewBox="0 0 11.906 11.906" xmlns="http://www.w3.org/2000/svg" xmlns:cc="http://creativecommons.org/ns#" xmlns:dc="http://purl.org/dc/elements/1.1/" xmlns:rdf="http://www.w3.org/1999/02/22-rdf-syntax-ns#">
 <metadata>
  <rdf:RDF>
   <cc:Work rdf:about="">
    <dc:format>image/svg+xml</dc:format>
    <dc:type rdf:resource="http://purl.org/dc/dcmitype/StillImage"/>
    <dc:title/>
   </cc:Work>
  </rdf:RDF>
 </metadata>
 <g transform="translate(-2234.9 407.9)">
  <rect x="1353.8" y="-115.3" width="266.7" height="266.7" ry="1.3726" fill-opacity="0"/>
  <g transform="matrix(.39653 0 0 .39653 1404.8 -276.4)" stroke-width="2.5219">
   <path transform="scale(.26458)" d="m7941.6-1232.1c-1.6569-1e-4 -3 1.3431-3 3v16.99c0 1.8884 0.891 3.6669 2.4024 4.7989l11.785 8.8261-3.9375 21.938-9.2089 5.7813c-1.5825 0.9935-2.5489 2.725-2.5625 4.5937l-0.082 11.375c0 1.6534 1.3254 3.0002 2.9785 3h58.619c1.6532 2e-4 2.9785-1.3466 2.9785-3l-0.082-11.375c-0.014-1.8687-0.98-3.6002-2.5625-4.5937l-9.209-5.7813-3.9375-21.938 11.785-8.8261c1.5115-1.132 2.4024-2.9105 2.4024-4.7989v-16.99c0-1.6569-1.3431-3.0001-3-3h-10.906c-1.6569 1e-4 -3 1.3432-3 3v9.3027l-2.8457 0.062v-9.3652c0-1.6569-1.343-3.0001-3-3h-15.865c-1.6569-1e-4 -3 1.3431-3 3v9.3652l-2.8437-0.062v-9.3027c0-1.6568-1.3431-2.9999-3-3z" fill="#404040"/>
   <path transform="scale(.26458)" d="m7943.5-1227.3-0.1778 15.766 14.125 10.496h23.52l14.125-10.496-0.1778-15.766h-7.1211l-0.072 10.385c-0.01 1.1075-0.9082 2.0009-2.0157 2h-8.1093c-1.111 2e-4 -2.0185-0.8874-2.043-1.9981l-0.2227-10.387h-12.246l-0.2226 10.387c-0.024 1.1107-0.932 1.9983-2.043 1.9981h-8.1094c-1.1075 9e-4 -2.0079-0.8926-2.0156-2l-0.072-10.385zm13.117 31.096-3.2128 19.127h31.605l-3.2129-19.127zm-5.3124 23.906-9.5469 6.1874v9.3614h54.898v-9.3614l-9.5469-6.1874z" fill="#fff"/>
  </g>
 </g>
</svg>
