<?xml version="1.0" encoding="UTF-8"?>
<svg width="11.906mm" height="11.906mm" version="1.1" viewBox="0 0 11.906 11.906" xmlns="http://www.w3.org/2000/svg" xmlns:cc="http://creativecommons.org/ns#" xmlns:dc="http://purl.org/dc/elements/1.1/" xmlns:rdf="http://www.w3.org/1999/02/22-rdf-syntax-ns#">
 <metadata>
  <rdf:RDF>
   <cc:Work rdf:about="">
    <dc:format>image/svg+xml</dc:format>
    <dc:type rdf:resource="http://purl.org/dc/dcmitype/StillImage"/>
    <dc:title/>
   </cc:Work>
  </rdf:RDF>
 </metadata>
 <g transform="translate(-2234.9 407.9)">
  <rect x="1353.8" y="-115.3" width="266.7" height="266.7" ry="1.3726" fill-opacity="0"/>
  <path d="m2238.2-406.38c-0.1509 0.0313-0.2313 0.20607-0.1612 0.3502 0.1757 0.36084 0.2116 0.60046 0.2125 0.73811 0.039 0.49727-0.518 1.0235-0.6283 1.6022-0.084 0.45042-0.1288 0.80663-0.2945 1.0442-0.1608 0.23068-0.2484 0.41866-0.2917 0.62212-0.043 0.20345-0.049 0.40313-0.083 0.72233-0.01 0.096 0.035 0.18935 0.1137 0.23789l1.143 0.69569c0.085 0.0523 0.1932 0.0417 0.268-0.0265 0.5592-0.51145 1.3398-0.79231 1.7713-1.6893 0.062-0.12886 0.1071-0.16438 0.1201-0.17337 0.01 4e-3 0.031 0.0174 0.07 0.0703 0.054 0.0725 0.11 0.19551 0.1412 0.3131 0.031 0.11759 0.033 0.23477 0.026 0.26598-0.22 0.95718-0.73 1.5499-1.4193 2.1075h5.5586c-0.082-0.96374-0.4621-2.0305-0.8111-3.0178-0.712-2.1392-1.6486-3.2382-3.8397-3.3641-0.6456-0.33719-1.1653-0.64665-1.8957-0.49875zm0.6709 2.2196c0.2294 7e-5 0.4153 0.19575 0.4153 0.43708s-0.1859 0.43701-0.4153 0.43708c-0.2294 1e-4 -0.4156-0.19564-0.4155-0.43708-1e-4 -0.24145 0.1861-0.43718 0.4155-0.43708zm0.2059 5.1485-0.095 1.5108c-0.01 0.14041 0.097 0.25921 0.2311 0.25923h5.3776c0.1276 0 0.2309-0.10899 0.2312-0.24324 0-0.4255-0.01-0.95181-0.042-1.5268z" color="#000000" color-rendering="auto" dominant-baseline="auto" fill="#404040" image-rendering="auto" shape-rendering="auto" solid-color="#000000" stop-color="#000000" style="font-feature-settings:normal;font-variant-alternates:normal;font-variant-caps:normal;font-variant-east-asian:normal;font-variant-ligatures:normal;font-variant-numeric:normal;font-variant-position:normal;font-variation-settings:normal;inline-size:0;isolation:auto;mix-blend-mode:normal;shape-margin:0;shape-padding:0;text-decoration-color:#000000;text-decoration-line:none;text-decoration-style:solid;text-indent:0;text-orientation:mixed;text-transform:none;white-space:normal"/>
 </g>
</svg>
